<svg width="22" height="22" viewBox="0 0 22 22" fill="none" xmlns="http://www.w3.org/2000/svg">
<path d="M8.25 3.53571H4.125V1.17857C4.125 0.527656 4.5867 0 5.15625 0H7.21875C7.7883 0 8.25 0.527656 8.25 1.17857V3.53571ZM17.875 1.17857C17.875 0.527656 17.4133 0 16.8438 0H14.7812C14.2117 0 13.75 0.527656 13.75 1.17857V3.53571H17.875V1.17857ZM0 20.8214C0 21.4723 0.461699 22 1.03125 22H6.1875C6.75705 22 7.21875 21.4723 7.21875 20.8214V20.0357H0V20.8214ZM3.78125 4.71429C3.2117 4.71429 2.75 5.24194 2.75 5.89286C2.75 11 0 11.7857 0 18.8571H7.21875V13.75C7.21875 13.0991 7.68045 12.5714 8.25 12.5714V4.71429H3.78125ZM14.7812 20.8214C14.7812 21.4723 15.2429 22 15.8125 22H20.9688C21.5383 22 22 21.4723 22 20.8214V20.0357H14.7812V20.8214ZM9.28125 4.71429V12.5714H12.7188V4.71429H9.28125ZM14.7812 18.8571H22C22 11.7857 19.25 11 19.25 5.89286C19.25 5.24194 18.7883 4.71429 18.2188 4.71429H13.75V12.5714C14.3196 12.5714 14.7812 13.0991 14.7812 13.75V18.8571Z" fill="#FF2D55"/>
</svg>
