<svg width="22" height="22" viewBox="0 0 22 22" fill="none" xmlns="http://www.w3.org/2000/svg">
<path d="M20.9688 7.85714H18.1968C18.8512 7.02247 19.25 5.92065 19.25 4.71429C19.25 2.1148 17.3996 0 15.125 0C13.3204 0 12.1712 1.01617 11.0003 2.65915C9.73977 0.893357 8.57712 0 6.875 0C4.60045 0 2.75 2.1148 2.75 4.71429C2.75 5.92065 3.14875 7.02247 3.80325 7.85714H1.03125C0.461699 7.85714 0 8.3848 0 9.03571V12.9643C0 13.6152 0.461699 14.1429 1.03125 14.1429H1.375V19.6429C1.375 20.9447 2.2984 22 3.4375 22H18.5625C19.7016 22 20.625 20.9447 20.625 19.6429V14.1429H20.9688C21.5383 14.1429 22 13.6152 22 12.9643V9.03571C22 8.3848 21.5383 7.85714 20.9688 7.85714ZM12.0312 6.28571C13.0625 3.53571 14.4085 3.14286 15.125 3.14286C15.8832 3.14286 16.5 3.84779 16.5 4.71429C16.5 5.58078 15.8832 6.28571 15.125 6.28571H12.0312ZM6.875 3.14286C7.59155 3.14286 8.9375 3.53571 9.96875 6.28571H6.875C6.11682 6.28571 5.5 5.58078 5.5 4.71429C5.5 3.84779 6.11682 3.14286 6.875 3.14286ZM8.9375 9.42857H13.0625V18.4643C13.0625 19.1152 12.6008 19.6429 12.0312 19.6429H9.96875C9.3992 19.6429 8.9375 19.1152 8.9375 18.4643V9.42857Z" fill="#7D7D7D"/>
</svg>
