<svg width="56" height="89" viewBox="0 0 56 89" fill="none" xmlns="http://www.w3.org/2000/svg">
<mask id="path-1-inside-1_11178_452" fill="white">
<path d="M37.3333 0C27.0448 0 18.6667 8.32202 18.6667 18.5417C18.6667 24.8719 21.8969 30.4634 26.7969 33.8096L12.1406 44.7245C12.1406 44.7245 12.1333 44.7245 12.1333 44.7318C11.725 44.9563 11.4115 45.3329 11.2656 45.7747L4.08333 60.0576C3.74062 60.4922 3.60938 61.0499 3.72604 61.5859C3.83542 62.1218 4.18542 62.5854 4.67396 62.8389L16.8 73.1672V77.9329C11.4771 78.1792 7.55417 79.4612 4.90729 80.8156C3.42708 81.5688 2.34792 82.3366 1.60417 82.945C1.23958 83.2564 0.955208 83.5244 0.751042 83.7345C0.641666 83.8431 0.561458 83.9373 0.473958 84.0387C0.4375 84.0894 0.39375 84.1328 0.342708 84.2197C0.313542 84.2632 0.277084 84.3066 0.226042 84.4153C0.196875 84.466 0.160418 84.5239 0.116667 84.6398C0.102084 84.6978 0.0510417 84.8643 0.0510417 84.8643C0.0510417 84.8716 0 85.2917 0 85.2917V87.1458C0 88.1671 0.838542 89 1.86667 89H35.4667C36.4948 89 37.3333 88.1671 37.3333 87.1458V85.2917C37.3333 84.8499 37.1729 84.4225 36.8885 84.0821C36.8885 84.0821 35.3792 82.3873 32.4333 80.8663C29.7865 79.5046 25.8635 78.1864 20.5333 77.9329V73.3048L30.9021 66.4386C31.4198 66.0981 31.7333 65.5187 31.7333 64.8958C31.7333 64.2729 31.4198 63.6935 30.9021 63.3531L21.5979 57.1895L27.176 51.6559C27.4167 51.5038 27.6208 51.301 27.7667 51.0548L33.0531 45.811C33.4031 45.4633 33.6 44.9925 33.6 44.5V36.7067C34.8104 36.953 36.0573 37.0833 37.3333 37.0833C47.6219 37.0833 56 28.7613 56 18.5417C56 8.32202 47.6219 0 37.3333 0ZM37.3333 3.70833C45.6021 3.70833 52.2667 10.3283 52.2667 18.5417C52.2667 26.755 45.6021 33.375 37.3333 33.375C29.0646 33.375 22.4 26.755 22.4 18.5417C22.4 10.3283 29.0646 3.70833 37.3333 3.70833ZM37.3333 11.125C33.2281 11.125 29.8667 14.4639 29.8667 18.5417C29.8667 22.6194 33.2281 25.9583 37.3333 25.9583C41.4385 25.9583 44.8 22.6194 44.8 18.5417C44.8 14.4639 41.4385 11.125 37.3333 11.125ZM37.3333 14.8333C39.4188 14.8333 41.0667 16.4702 41.0667 18.5417C41.0667 20.6131 39.4188 22.25 37.3333 22.25C35.2479 22.25 33.6 20.6131 33.6 18.5417C33.6 16.4702 35.2479 14.8333 37.3333 14.8333ZM29.8667 35.5189V43.7323L25.5865 47.9766L17.1938 45.6009L29.1156 36.7139C29.5167 36.4315 29.7792 35.9969 29.8667 35.5189ZM14.0437 48.556L22.575 50.9823L17.6896 55.8278L9.16562 58.2469L14.0437 48.556ZM18.3458 59.4999L26.5052 64.8958L18.8125 69.9948L9.45 62.0204L18.3458 59.4999ZM18.4115 81.5906C18.5865 81.6123 18.7542 81.6123 18.9219 81.5906C24.4927 81.6268 28.3063 82.916 30.7125 84.1545C31.901 84.7629 31.799 84.8716 32.3312 85.2917H4.78333C5.29375 84.9223 5.76042 84.5529 6.61354 84.1111C9.01979 82.887 12.8333 81.6268 18.4115 81.5906Z"/>
</mask>
<path d="M37.3333 0C27.0448 0 18.6667 8.32202 18.6667 18.5417C18.6667 24.8719 21.8969 30.4634 26.7969 33.8096L12.1406 44.7245C12.1406 44.7245 12.1333 44.7245 12.1333 44.7318C11.725 44.9563 11.4115 45.3329 11.2656 45.7747L4.08333 60.0576C3.74062 60.4922 3.60938 61.0499 3.72604 61.5859C3.83542 62.1218 4.18542 62.5854 4.67396 62.8389L16.8 73.1672V77.9329C11.4771 78.1792 7.55417 79.4612 4.90729 80.8156C3.42708 81.5688 2.34792 82.3366 1.60417 82.945C1.23958 83.2564 0.955208 83.5244 0.751042 83.7345C0.641666 83.8431 0.561458 83.9373 0.473958 84.0387C0.4375 84.0894 0.39375 84.1328 0.342708 84.2197C0.313542 84.2632 0.277084 84.3066 0.226042 84.4153C0.196875 84.466 0.160418 84.5239 0.116667 84.6398C0.102084 84.6978 0.0510417 84.8643 0.0510417 84.8643C0.0510417 84.8716 0 85.2917 0 85.2917V87.1458C0 88.1671 0.838542 89 1.86667 89H35.4667C36.4948 89 37.3333 88.1671 37.3333 87.1458V85.2917C37.3333 84.8499 37.1729 84.4225 36.8885 84.0821C36.8885 84.0821 35.3792 82.3873 32.4333 80.8663C29.7865 79.5046 25.8635 78.1864 20.5333 77.9329V73.3048L30.9021 66.4386C31.4198 66.0981 31.7333 65.5187 31.7333 64.8958C31.7333 64.2729 31.4198 63.6935 30.9021 63.3531L21.5979 57.1895L27.176 51.6559C27.4167 51.5038 27.6208 51.301 27.7667 51.0548L33.0531 45.811C33.4031 45.4633 33.6 44.9925 33.6 44.5V36.7067C34.8104 36.953 36.0573 37.0833 37.3333 37.0833C47.6219 37.0833 56 28.7613 56 18.5417C56 8.32202 47.6219 0 37.3333 0ZM37.3333 3.70833C45.6021 3.70833 52.2667 10.3283 52.2667 18.5417C52.2667 26.755 45.6021 33.375 37.3333 33.375C29.0646 33.375 22.4 26.755 22.4 18.5417C22.4 10.3283 29.0646 3.70833 37.3333 3.70833ZM37.3333 11.125C33.2281 11.125 29.8667 14.4639 29.8667 18.5417C29.8667 22.6194 33.2281 25.9583 37.3333 25.9583C41.4385 25.9583 44.8 22.6194 44.8 18.5417C44.8 14.4639 41.4385 11.125 37.3333 11.125ZM37.3333 14.8333C39.4188 14.8333 41.0667 16.4702 41.0667 18.5417C41.0667 20.6131 39.4188 22.25 37.3333 22.25C35.2479 22.25 33.6 20.6131 33.6 18.5417C33.6 16.4702 35.2479 14.8333 37.3333 14.8333ZM29.8667 35.5189V43.7323L25.5865 47.9766L17.1938 45.6009L29.1156 36.7139C29.5167 36.4315 29.7792 35.9969 29.8667 35.5189ZM14.0437 48.556L22.575 50.9823L17.6896 55.8278L9.16562 58.2469L14.0437 48.556ZM18.3458 59.4999L26.5052 64.8958L18.8125 69.9948L9.45 62.0204L18.3458 59.4999ZM18.4115 81.5906C18.5865 81.6123 18.7542 81.6123 18.9219 81.5906C24.4927 81.6268 28.3063 82.916 30.7125 84.1545C31.901 84.7629 31.799 84.8716 32.3312 85.2917H4.78333C5.29375 84.9223 5.76042 84.5529 6.61354 84.1111C9.01979 82.887 12.8333 81.6268 18.4115 81.5906Z" fill="#5A5A5A"/>
<path d="M26.7969 33.8096L32.7698 41.8298L44.0127 33.4569L32.4363 25.5514L26.7969 33.8096ZM12.1406 44.7245L12.1413 54.7245L15.4555 54.7243L18.1135 52.7448L12.1406 44.7245ZM12.1333 44.7318L16.9516 53.4944L22.1333 50.6452V44.7318H12.1333ZM11.2656 45.7747L20.1997 50.2673L20.5307 49.609L20.7617 48.9092L11.2656 45.7747ZM4.08333 60.0576L11.9354 66.2499L12.5625 65.4548L13.0174 64.5502L4.08333 60.0576ZM3.72604 61.5859L13.5241 59.5864L13.5111 59.5226L13.4972 59.4589L3.72604 61.5859ZM4.67396 62.8389L11.1581 55.226L10.2909 54.4874L9.27975 53.9627L4.67396 62.8389ZM16.8 73.1672H26.8V68.5489L23.2842 65.5543L16.8 73.1672ZM16.8 77.9329L17.2621 87.9223L26.8 87.481V77.9329H16.8ZM4.90729 80.8156L9.44267 89.728L9.45262 89.7229L9.46257 89.7178L4.90729 80.8156ZM1.60417 82.945L-4.72743 75.2048L-4.80996 75.2723L-4.89103 75.3415L1.60417 82.945ZM0.751042 83.7345L7.79831 90.8292L7.86055 90.7674L7.92169 90.7045L0.751042 83.7345ZM0.473958 84.0387L-7.09698 77.5056L-7.38633 77.8409L-7.64491 78.2005L0.473958 84.0387ZM0.342708 84.2197L8.646 89.7925L8.81349 89.5429L8.96568 89.2838L0.342708 84.2197ZM0.226042 84.4153L8.89407 89.4018L9.10071 89.0426L9.27692 88.6675L0.226042 84.4153ZM0.116667 84.6398L-9.2388 81.1078L-9.44113 81.6437L-9.58094 82.1992L0.116667 84.6398ZM0.0510417 84.8643L-9.5102 81.9347L-9.94896 83.3667V84.8643H0.0510417ZM0 85.2917L-9.92699 84.0855L-10 84.6864V85.2917H0ZM36.8885 84.0821L44.563 77.671L44.4616 77.5496L44.3564 77.4314L36.8885 84.0821ZM32.4333 80.8663L37.0211 71.9808L37.0145 71.9774L37.0079 71.974L32.4333 80.8663ZM20.5333 77.9329H10.5333V87.4687L20.0583 87.9217L20.5333 77.9329ZM20.5333 73.3048L15.0121 64.9671L10.5333 67.933V73.3048H20.5333ZM30.9021 66.4386L25.408 58.083L25.3944 58.0919L25.3809 58.1009L30.9021 66.4386ZM30.9021 63.3531L25.3794 71.6898L25.3937 71.6992L25.408 71.7086L30.9021 63.3531ZM21.5979 57.1895L14.5553 50.0901L5.83396 58.7417L16.0752 65.5261L21.5979 57.1895ZM27.176 51.6559L21.833 43.203L20.9092 43.7869L20.1334 44.5565L27.176 51.6559ZM27.7667 51.0548L20.7243 43.9551L19.8149 44.8572L19.1623 45.9593L27.7667 51.0548ZM33.0531 45.811L40.0955 52.9106L40.1004 52.9057L33.0531 45.811ZM33.6 36.7067L35.5936 26.9075L23.6 24.4674V36.7067H33.6ZM29.8667 35.5189H39.8667L20.0301 33.7184L29.8667 35.5189ZM29.8667 43.7323L36.9079 50.833L39.8667 47.8991V43.7323H29.8667ZM25.5865 47.9766L22.8629 57.5985L28.4814 59.1889L32.6277 55.0774L25.5865 47.9766ZM17.1938 45.6009L11.2172 37.5834L-5.03831 49.7008L14.4701 55.2229L17.1938 45.6009ZM29.1156 36.7139L23.3572 28.5383L23.2471 28.6159L23.1391 28.6964L29.1156 36.7139ZM14.0437 48.556L16.7793 38.9374L8.82829 36.6761L5.11155 44.0598L14.0437 48.556ZM22.575 50.9823L29.617 58.0824L41.7573 46.0414L25.3106 41.3638L22.575 50.9823ZM17.6896 55.8278L20.4198 65.4479L22.9006 64.7438L24.7316 62.9278L17.6896 55.8278ZM9.16562 58.2469L0.233429 53.7507L-10.0003 74.0811L11.8958 67.867L9.16562 58.2469ZM18.3458 59.4999L23.8619 51.1589L20.0346 48.6278L15.6198 49.8787L18.3458 59.4999ZM26.5052 64.8958L32.0301 73.2311L44.6197 64.8863L32.0213 56.5548L26.5052 64.8958ZM18.8125 69.9948L12.3284 77.6077L18.0609 82.4903L24.3373 78.33L18.8125 69.9948ZM9.45 62.0204L6.72395 52.3992L-11.2794 57.5002L2.96585 69.6333L9.45 62.0204ZM18.4115 81.5906L19.6437 71.6668L18.9976 71.5866L18.3465 71.5908L18.4115 81.5906ZM18.9219 81.5906L18.9869 71.5908L18.3091 71.5864L17.637 71.6735L18.9219 81.5906ZM30.7125 84.1545L26.136 93.0459L26.146 93.051L26.1559 93.0561L30.7125 84.1545ZM32.3312 85.2917V95.2917H61.1442L38.5264 77.4418L32.3312 85.2917ZM4.78333 85.2917L-1.0794 77.1905L-26.0916 95.2917H4.78333V85.2917ZM6.61354 84.1111L2.07954 75.198L2.04713 75.2145L2.01485 75.2312L6.61354 84.1111ZM37.3333 -10C21.5854 -10 8.66667 2.73593 8.66667 18.5417H28.6667C28.6667 13.9081 32.5042 10 37.3333 10V-10ZM8.66667 18.5417C8.66667 28.3678 13.6913 36.9691 21.1574 42.0677L32.4363 25.5514C30.1025 23.9577 28.6667 21.376 28.6667 18.5417H8.66667ZM20.824 25.7893L6.16771 36.7043L18.1135 52.7448L32.7698 41.8298L20.824 25.7893ZM12.1406 44.7245C12.14 34.7245 12.1351 34.7245 12.1303 34.7245C12.1286 34.7245 12.1238 34.7245 12.1205 34.7245C12.114 34.7246 12.1075 34.7246 12.1009 34.7246C12.0877 34.7247 12.0745 34.7247 12.0612 34.7248C12.0345 34.7251 12.0073 34.7254 11.9798 34.7258C11.9247 34.7267 11.8678 34.7281 11.809 34.73C11.6918 34.7339 11.5658 34.7402 11.432 34.7497C11.1677 34.7684 10.855 34.8012 10.5057 34.859C9.85479 34.9668 8.83275 35.201 7.68862 35.7693C6.50684 36.3563 5.01093 37.3971 3.83129 39.1547C2.60738 40.9782 2.13333 42.9661 2.13333 44.7318H22.1333C22.1333 46.4938 21.6602 48.479 20.4377 50.3005C19.2594 52.056 17.7653 53.0955 16.5853 53.6816C15.443 54.2489 14.4228 54.4827 13.7733 54.5903C13.4247 54.648 13.1125 54.6807 12.8486 54.6994C12.715 54.7089 12.5892 54.7151 12.4721 54.719C12.4134 54.721 12.3565 54.7224 12.3014 54.7232C12.2739 54.7237 12.2468 54.724 12.2201 54.7242C12.2067 54.7243 12.1935 54.7244 12.1804 54.7244C12.1738 54.7245 12.1673 54.7245 12.1607 54.7245C12.1575 54.7245 12.1526 54.7245 12.151 54.7245C12.1461 54.7245 12.1413 54.7245 12.1406 44.7245ZM7.31505 35.9691C4.69953 37.4073 2.71007 39.7909 1.76956 42.6403L20.7617 48.9092C20.1128 50.8749 18.7505 52.5053 16.9516 53.4944L7.31505 35.9691ZM2.3316 41.2822L-4.85069 55.5651L13.0174 64.5502L20.1997 50.2673L2.3316 41.2822ZM-3.76877 53.8653C-5.93165 56.608 -6.80799 60.2083 -6.04515 63.7128L13.4972 59.4589C14.0267 61.8915 13.4129 64.3764 11.9354 66.2499L-3.76877 53.8653ZM-6.07202 63.5854C-5.35688 67.0897 -3.0917 70.0754 0.0681719 71.7151L9.27975 53.9627C11.4625 55.0953 13.0277 57.1539 13.5241 59.5864L-6.07202 63.5854ZM-1.81023 70.4517L10.3158 80.78L23.2842 65.5543L11.1581 55.226L-1.81023 70.4517ZM6.8 73.1672V77.9329H26.8V73.1672H6.8ZM16.3379 67.9436C9.61762 68.2545 4.29562 69.8954 0.352011 71.9134L9.46257 89.7178C10.8127 89.0269 13.3365 88.1039 17.2621 87.9223L16.3379 67.9436ZM0.371918 71.9032C-1.81658 73.0169 -3.49226 74.1944 -4.72743 75.2048L7.93576 90.6852C8.1881 90.4788 8.67075 90.1208 9.44267 89.728L0.371918 71.9032ZM-4.89103 75.3415C-5.44452 75.8144 -5.96186 76.2935 -6.4196 76.7644L7.92169 90.7045C7.89136 90.7357 7.89101 90.7345 7.92612 90.7018C7.95954 90.6707 8.01683 90.6189 8.09937 90.5484L-4.89103 75.3415ZM-6.29623 76.6397C-6.72383 77.0644 -7.05189 77.4533 -7.09698 77.5056L8.0449 90.5717C8.17481 90.4212 8.00716 90.6218 7.79831 90.8292L-6.29623 76.6397ZM-7.64491 78.2005C-7.50401 78.0046 -7.38774 77.8596 -7.37056 77.8381C-7.36454 77.8305 -7.36023 77.8252 -7.3624 77.8279C-7.36242 77.8279 -7.37043 77.8379 -7.37816 77.8475C-7.39512 77.8687 -7.43037 77.9129 -7.47346 77.9682C-7.67803 78.2306 -7.97242 78.6315 -8.28026 79.1557L8.96568 89.2838C8.84442 89.4902 8.72047 89.6825 8.59738 89.86C8.47539 90.0359 8.3698 90.1749 8.30106 90.2631C8.26892 90.3043 8.24437 90.335 8.2379 90.3431C8.23541 90.3462 8.23257 90.3497 8.23769 90.3434C8.24064 90.3397 8.25002 90.328 8.26105 90.3142C8.29829 90.2675 8.4337 90.0981 8.59282 89.8768L-7.64491 78.2005ZM-7.96059 78.647C-7.89521 78.5496 -7.79612 78.4089 -7.87327 78.5191C-7.91353 78.5767 -8.01109 78.7167 -8.12763 78.8986C-8.38402 79.2988 -8.61607 79.7187 -8.82484 80.163L9.27692 88.6675C9.11919 89.0033 8.93089 89.3471 8.71279 89.6875C8.61538 89.8395 8.5356 89.9538 8.51197 89.9875C8.50728 89.9942 8.5034 89.9997 8.50661 89.9952C8.50774 89.9936 8.51644 89.9812 8.52631 89.9671C8.54578 89.9392 8.59089 89.8746 8.646 89.7925L-7.96059 78.647ZM-8.44199 79.4288C-8.34908 79.2673 -8.55314 79.614 -8.70885 79.9156C-8.9035 80.2927 -9.0805 80.6885 -9.2388 81.1078L9.47213 88.1718C9.35758 88.4753 9.22069 88.7842 9.0625 89.0906C8.98867 89.2336 8.92548 89.3463 8.88779 89.4124C8.87103 89.4417 8.85829 89.4636 8.85989 89.4609C8.8605 89.4598 8.86017 89.4604 8.86213 89.457C8.86344 89.4547 8.86578 89.4507 8.86849 89.4461C8.87377 89.4369 8.88298 89.4211 8.89407 89.4018L-8.44199 79.4288ZM-9.58094 82.1992C-9.52493 81.9767 -9.47351 81.8119 -9.50436 81.9153C-9.50595 81.9206 -9.50806 81.9276 -9.51 81.934C-9.51085 81.9368 -9.5114 81.9387 -9.51153 81.9391C-9.51158 81.9392 -9.51151 81.939 -9.5113 81.9383C-9.5112 81.938 -9.51105 81.9375 -9.51087 81.9369C-9.51078 81.9366 -9.51068 81.9363 -9.51057 81.9359C-9.51051 81.9357 -9.51045 81.9355 -9.51039 81.9353C-9.51036 81.9352 -9.51033 81.9352 -9.5103 81.935C-9.51028 81.935 -9.51026 81.9349 -9.51025 81.9349C-9.51023 81.9348 -9.5102 81.9347 0.0510417 84.8643C9.61228 87.794 9.61231 87.7939 9.61233 87.7938C9.61234 87.7938 9.61237 87.7937 9.61239 87.7936C9.61242 87.7935 9.61246 87.7934 9.61249 87.7933C9.61257 87.793 9.61264 87.7928 9.61272 87.7925C9.61289 87.792 9.61306 87.7914 9.61325 87.7908C9.61363 87.7896 9.61406 87.7882 9.61454 87.7866C9.61551 87.7834 9.61668 87.7796 9.61805 87.7751C9.62078 87.7661 9.62433 87.7545 9.62849 87.7408C9.63657 87.7141 9.64813 87.6759 9.66113 87.6323C9.67332 87.5914 9.69125 87.5309 9.7106 87.4636C9.72069 87.4286 9.76667 87.2695 9.81427 87.0804L-9.58094 82.1992ZM-9.94896 84.8643C-9.94896 84.5699 -9.93534 84.3398 -9.93219 84.2856C-9.92683 84.1932 -9.92126 84.1196 -9.91814 84.0801C-9.91181 83.9996 -9.90586 83.9369 -9.90346 83.9118C-9.89808 83.8557 -9.89344 83.8126 -9.89215 83.8006C-9.88879 83.7693 -9.88622 83.747 -9.88614 83.7464C-9.88532 83.7392 -9.88552 83.7411 -9.88752 83.758C-9.8911 83.7882 -9.89651 83.8334 -9.9027 83.8847C-9.90871 83.9346 -9.9148 83.9849 -9.91943 84.0232C-9.92173 84.0422 -9.92365 84.0579 -9.92498 84.0689C-9.92564 84.0744 -9.92616 84.0786 -9.9265 84.0815C-9.92667 84.0829 -9.9268 84.0839 -9.92689 84.0846C-9.92693 84.085 -9.92696 84.0852 -9.92697 84.0854C-9.92698 84.0854 -9.92699 84.0855 -9.92699 84.0855C-9.92699 84.0855 -9.92699 84.0855 -9.92699 84.0855L-9.92699 84.0855C-9.92699 84.0855 -9.92699 84.0855 0 85.2917C9.92699 86.4978 9.92699 86.4978 9.92699 86.4978C9.927 86.4978 9.927 86.4978 9.927 86.4978C9.927 86.4977 9.92701 86.4977 9.92701 86.4977C9.92702 86.4976 9.92703 86.4975 9.92705 86.4974C9.92708 86.4971 9.92712 86.4967 9.92718 86.4963C9.92729 86.4954 9.92745 86.4941 9.92765 86.4924C9.92805 86.4891 9.92863 86.4843 9.92936 86.4783C9.93082 86.4663 9.9329 86.4492 9.93538 86.4287C9.94032 86.3879 9.94699 86.3327 9.95374 86.2767C9.96031 86.2222 9.96766 86.161 9.97366 86.1103C9.97644 86.0869 9.98023 86.0547 9.98384 86.0232C9.98531 86.0103 9.98897 85.9783 9.99309 85.94C9.99475 85.9246 9.99968 85.8787 10.0052 85.8206C10.0077 85.7945 10.0138 85.7309 10.0202 85.6499C10.0233 85.61 10.0289 85.5362 10.0343 85.4436C10.0374 85.3892 10.051 85.1589 10.051 84.8643H-9.94896ZM-10 85.2917V87.1458H10V85.2917H-10ZM-10 87.1458C-10 93.7532 -4.62085 99 1.86667 99V79C6.29794 79 10 82.581 10 87.1458H-10ZM1.86667 99H35.4667V79H1.86667V99ZM35.4667 99C41.9542 99 47.3333 93.7532 47.3333 87.1458H27.3333C27.3333 82.581 31.0354 79 35.4667 79V99ZM47.3333 87.1458V85.2917H27.3333V87.1458H47.3333ZM47.3333 85.2917C47.3333 82.4196 46.2933 79.7422 44.563 77.671L29.2141 90.4932C28.0526 89.1029 27.3333 87.2802 27.3333 85.2917H47.3333ZM36.8885 84.0821C44.3564 77.4314 44.3547 77.4295 44.3529 77.4276C44.3524 77.4269 44.3506 77.425 44.3495 77.4237C44.3472 77.4211 44.3448 77.4185 44.3424 77.4158C44.3377 77.4105 44.3328 77.4051 44.3279 77.3995C44.3179 77.3885 44.3075 77.377 44.2967 77.365C44.2751 77.3412 44.2517 77.3156 44.2266 77.2883C44.1764 77.2338 44.1192 77.1725 44.0549 77.1051C43.9264 76.9704 43.7694 76.8105 43.584 76.6299C43.2136 76.2692 42.7262 75.8222 42.1216 75.3244C40.9169 74.3325 39.2161 73.1141 37.0211 71.9808L27.8456 89.7518C28.5964 90.1395 29.1232 90.529 29.4096 90.7647C29.5506 90.8808 29.6246 90.9525 29.6294 90.9571C29.6315 90.9592 29.6154 90.9436 29.581 90.9075C29.5637 90.8894 29.5418 90.8661 29.5151 90.8371C29.5018 90.8226 29.4872 90.8067 29.4715 90.7894C29.4636 90.7807 29.4555 90.7716 29.447 90.7622C29.4428 90.7575 29.4385 90.7527 29.4341 90.7478C29.4319 90.7453 29.4297 90.7429 29.4275 90.7404C29.4264 90.7391 29.4247 90.7372 29.4241 90.7366C29.4224 90.7347 29.4207 90.7328 36.8885 84.0821ZM37.0079 71.974C33.1029 69.9651 27.7837 68.2665 21.0084 67.9442L20.0583 87.9217C23.9434 88.1064 26.47 89.0442 27.8588 89.7586L37.0079 71.974ZM30.5333 77.9329V73.3048H10.5333V77.9329H30.5333ZM26.0545 81.6424L36.4233 74.7762L25.3809 58.1009L15.0121 64.9671L26.0545 81.6424ZM36.3962 74.7941C39.7246 72.6055 41.7333 68.8868 41.7333 64.8958H21.7333C21.7333 62.1506 23.1149 59.5908 25.408 58.083L36.3962 74.7941ZM41.7333 64.8958C41.7333 60.9048 39.7246 57.1862 36.3962 54.9976L25.408 71.7086C23.1149 70.2009 21.7333 67.6411 21.7333 64.8958H41.7333ZM36.4248 55.0165L27.1206 48.8528L16.0752 65.5261L25.3794 71.6898L36.4248 55.0165ZM28.6405 64.2888L34.2187 58.7553L20.1334 44.5565L14.5553 50.0901L28.6405 64.2888ZM32.5191 60.1088C33.9935 59.1769 35.3588 57.8596 36.3711 56.1503L19.1623 45.9593C19.8829 44.7424 20.8398 43.8308 21.833 43.203L32.5191 60.1088ZM34.809 58.1544L40.0955 52.9106L26.0107 38.7113L20.7243 43.9551L34.809 58.1544ZM40.1004 52.9057C42.3294 50.6916 43.6 47.6716 43.6 44.5H23.6C23.6 42.3134 24.4768 40.235 26.0059 38.7162L40.1004 52.9057ZM43.6 44.5V36.7067H23.6V44.5H43.6ZM31.6064 46.506C33.4584 46.8828 35.3731 47.0833 37.3333 47.0833V27.0833C36.7415 27.0833 36.1624 27.0232 35.5936 26.9075L31.6064 46.506ZM37.3333 47.0833C53.0813 47.0833 66 34.3474 66 18.5417H46C46 23.1752 42.1625 27.0833 37.3333 27.0833V47.0833ZM66 18.5417C66 2.73593 53.0813 -10 37.3333 -10V10C42.1625 10 46 13.9081 46 18.5417H66ZM37.3333 13.7083C40.1427 13.7083 42.2667 15.9144 42.2667 18.5417H62.2667C62.2667 4.7422 51.0615 -6.29167 37.3333 -6.29167V13.7083ZM42.2667 18.5417C42.2667 21.169 40.1427 23.375 37.3333 23.375V43.375C51.0615 43.375 62.2667 32.3411 62.2667 18.5417H42.2667ZM37.3333 23.375C34.524 23.375 32.4 21.169 32.4 18.5417H12.4C12.4 32.3411 23.6052 43.375 37.3333 43.375V23.375ZM32.4 18.5417C32.4 15.9144 34.524 13.7083 37.3333 13.7083V-6.29167C23.6052 -6.29167 12.4 4.7422 12.4 18.5417H32.4ZM37.3333 1.125C27.7687 1.125 19.8667 8.87786 19.8667 18.5417H39.8667C39.8667 20.05 38.6875 21.125 37.3333 21.125V1.125ZM19.8667 18.5417C19.8667 28.2055 27.7687 35.9583 37.3333 35.9583V15.9583C38.6875 15.9583 39.8667 17.0333 39.8667 18.5417H19.8667ZM37.3333 35.9583C46.8979 35.9583 54.8 28.2055 54.8 18.5417H34.8C34.8 17.0333 35.9791 15.9583 37.3333 15.9583V35.9583ZM54.8 18.5417C54.8 8.87786 46.8979 1.125 37.3333 1.125V21.125C35.9791 21.125 34.8 20.05 34.8 18.5417H54.8ZM37.3333 24.8333C33.9594 24.8333 31.0667 22.0563 31.0667 18.5417H51.0667C51.0667 10.8841 44.8782 4.83333 37.3333 4.83333V24.8333ZM31.0667 18.5417C31.0667 15.027 33.9594 12.25 37.3333 12.25V32.25C44.8781 32.25 51.0667 26.1992 51.0667 18.5417H31.0667ZM37.3333 12.25C40.7073 12.25 43.6 15.027 43.6 18.5417H23.6C23.6 26.1992 29.7885 32.25 37.3333 32.25V12.25ZM43.6 18.5417C43.6 22.0563 40.7073 24.8333 37.3333 24.8333V4.83333C29.7885 4.83333 23.6 10.8841 23.6 18.5417H43.6ZM19.8667 35.5189V43.7323H39.8667V35.5189H19.8667ZM22.8254 36.6315L18.5452 40.8758L32.6277 55.0774L36.9079 50.833L22.8254 36.6315ZM28.3101 38.3546L19.9174 35.979L14.4701 55.2229L22.8629 57.5985L28.3101 38.3546ZM23.1703 53.6185L35.0922 44.7315L23.1391 28.6964L11.2172 37.5834L23.1703 53.6185ZM34.874 44.8896C37.5644 42.9946 39.1775 40.1919 39.7032 37.3194L20.0301 33.7184C20.3809 31.802 21.4689 29.8683 23.3572 28.5383L34.874 44.8896ZM11.3082 58.1745L19.8394 60.6009L25.3106 41.3638L16.7793 38.9374L11.3082 58.1745ZM15.533 43.8823L10.6476 48.7278L24.7316 62.9278L29.617 58.0824L15.533 43.8823ZM14.9594 46.2077L6.43543 48.6268L11.8958 67.867L20.4198 65.4479L14.9594 46.2077ZM18.0978 62.7431L22.9759 53.0522L5.11155 44.0598L0.233429 53.7507L18.0978 62.7431ZM12.8298 67.841L20.9891 73.2369L32.0213 56.5548L23.8619 51.1589L12.8298 67.841ZM20.9804 56.5606L13.2877 61.6596L24.3373 78.33L32.0301 73.2311L20.9804 56.5606ZM25.2966 62.3819L15.9341 54.4076L2.96585 69.6333L12.3284 77.6077L25.2966 62.3819ZM12.176 71.6417L21.0719 69.1212L15.6198 49.8787L6.72395 52.3992L12.176 71.6417ZM17.1793 91.5144C18.1544 91.6355 19.1686 91.6422 20.2068 91.5077L17.637 71.6735C18.3397 71.5824 19.0185 71.5892 19.6437 71.6668L17.1793 91.5144ZM18.8569 91.5904C22.8418 91.6163 25.1115 92.5185 26.136 93.0459L35.289 75.2632C31.501 73.3135 26.1436 71.6373 18.9869 71.5908L18.8569 91.5904ZM26.1559 93.0561C26.2268 93.0924 26.2573 93.1092 26.2571 93.1091C26.257 93.109 26.2149 93.0858 26.1428 93.0413C26.0687 92.9956 25.9609 92.9263 25.8301 92.8338C25.7648 92.7876 25.6966 92.7375 25.6261 92.6837C25.5554 92.6298 25.4868 92.5754 25.4208 92.5211C25.3548 92.4669 25.2962 92.4169 25.246 92.3729C25.1964 92.3295 25.1577 92.2943 25.1336 92.2721C25.1112 92.2516 25.0982 92.2393 25.1068 92.2474C25.1116 92.2519 25.1162 92.2563 25.1289 92.2682C25.1396 92.2783 25.1561 92.2939 25.1744 92.3111C25.2504 92.3825 25.3857 92.5087 25.5558 92.6582C25.6411 92.7332 25.7328 92.812 25.8311 92.894C25.9292 92.9759 26.0308 93.0584 26.1361 93.1416L38.5264 77.4418C38.6073 77.5056 38.6862 77.5717 38.7594 77.6361C38.8286 77.6969 38.8752 77.741 38.8674 77.7336C38.8347 77.7029 38.8742 77.74 38.8118 77.6812C38.78 77.6513 38.7268 77.6014 38.6635 77.5432C38.5303 77.4209 38.3445 77.2547 38.1152 77.0663C37.1219 76.2505 36.1266 75.6919 35.2691 75.253L26.1559 93.0561ZM32.3312 75.2917H4.78333V95.2917H32.3312V75.2917ZM10.6461 93.3928C10.7346 93.3288 10.818 93.2677 10.8799 93.2224C10.9481 93.1724 10.993 93.1396 11.0367 93.1079C11.1184 93.0486 11.1506 93.0265 11.1636 93.0177C11.1723 93.0118 11.1706 93.0132 11.1665 93.0156C11.1631 93.0177 11.176 93.0097 11.2122 92.991L2.01485 75.2312C0.366561 76.0848 -0.741722 76.9462 -1.0794 77.1905L10.6461 93.3928ZM11.1475 93.0242C12.1574 92.5104 14.4394 91.6166 18.4764 91.5904L18.3465 71.5908C11.2273 71.637 5.88215 73.2637 2.07954 75.198L11.1475 93.0242Z" fill="#5A5A5A" mask="url(#path-1-inside-1_11178_452)"/>
</svg>
