<svg width="23" height="22" viewBox="0 0 23 22" fill="none" xmlns="http://www.w3.org/2000/svg">
<path d="M21.9107 20.625H20.9286V1.03125C20.9286 0.461699 20.4009 0 19.75 0H3.25C2.59908 0 2.07143 0.461699 2.07143 1.03125V20.625H1.08929C0.763853 20.625 0.5 20.8559 0.5 21.1406V22H22.5V21.1406C22.5 20.8559 22.2361 20.625 21.9107 20.625ZM6.78571 3.26562C6.78571 2.98087 7.04957 2.75 7.375 2.75H9.33929C9.66472 2.75 9.92857 2.98087 9.92857 3.26562V4.98438C9.92857 5.26913 9.66472 5.5 9.33929 5.5H7.375C7.04957 5.5 6.78571 5.26913 6.78571 4.98438V3.26562ZM6.78571 7.39062C6.78571 7.10587 7.04957 6.875 7.375 6.875H9.33929C9.66472 6.875 9.92857 7.10587 9.92857 7.39062V9.10938C9.92857 9.39413 9.66472 9.625 9.33929 9.625H7.375C7.04957 9.625 6.78571 9.39413 6.78571 9.10938V7.39062ZM9.33929 13.75H7.375C7.04957 13.75 6.78571 13.5191 6.78571 13.2344V11.5156C6.78571 11.2309 7.04957 11 7.375 11H9.33929C9.66472 11 9.92857 11.2309 9.92857 11.5156V13.2344C9.92857 13.5191 9.66472 13.75 9.33929 13.75ZM13.0714 20.625H9.92857V17.0156C9.92857 16.7309 10.1924 16.5 10.5179 16.5H12.4821C12.8076 16.5 13.0714 16.7309 13.0714 17.0156V20.625ZM16.2143 13.2344C16.2143 13.5191 15.9504 13.75 15.625 13.75H13.6607C13.3353 13.75 13.0714 13.5191 13.0714 13.2344V11.5156C13.0714 11.2309 13.3353 11 13.6607 11H15.625C15.9504 11 16.2143 11.2309 16.2143 11.5156V13.2344ZM16.2143 9.10938C16.2143 9.39413 15.9504 9.625 15.625 9.625H13.6607C13.3353 9.625 13.0714 9.39413 13.0714 9.10938V7.39062C13.0714 7.10587 13.3353 6.875 13.6607 6.875H15.625C15.9504 6.875 16.2143 7.10587 16.2143 7.39062V9.10938ZM16.2143 4.98438C16.2143 5.26913 15.9504 5.5 15.625 5.5H13.6607C13.3353 5.5 13.0714 5.26913 13.0714 4.98438V3.26562C13.0714 2.98087 13.3353 2.75 13.6607 2.75H15.625C15.9504 2.75 16.2143 2.98087 16.2143 3.26562V4.98438Z" fill="#7D7D7D"/>
</svg>
