<svg width="23" height="22" viewBox="0 0 23 22" fill="none" xmlns="http://www.w3.org/2000/svg">
<path d="M16.2999 8.16129H22.1295C22.3707 9.06697 22.5 10.0183 22.5 11C22.5 11.9817 22.3707 12.933 22.1295 13.8387H16.2999C16.5285 11.9293 16.519 9.99111 16.2999 8.16129ZM8.36031 15.2581C8.83394 17.639 9.8317 20.2486 11.4707 21.9996C11.4805 21.9997 11.4902 22 11.5 22C11.5098 22 11.5195 21.9996 11.5293 21.9996C13.171 20.2457 14.167 17.6345 14.6397 15.2581H8.36031ZM16.0838 6.74194H21.6453C20.2292 3.37203 17.1831 0.85627 13.4938 0.180746C14.835 2.09333 15.6592 4.45354 16.0838 6.74194ZM14.8707 8.16129H8.12931C7.8925 10.0204 7.89224 11.9774 8.12931 13.8387H14.8708C15.1076 11.9796 15.1079 10.0226 14.8707 8.16129ZM6.91621 15.2581H1.35476C2.77084 18.628 5.81687 21.1437 9.50622 21.8193C8.16466 19.906 7.34068 17.5457 6.91621 15.2581ZM16.0838 15.2581C15.6591 17.547 14.8347 19.9071 13.4938 21.8193C17.1831 21.1437 20.2292 18.628 21.6452 15.2581H16.0838ZM14.6397 6.74194C14.1661 4.36097 13.1683 1.7514 11.5293 0.000354855C11.5195 0.000354855 11.5098 0 11.5 0C11.4902 0 11.4805 0.000354855 11.4707 0.000354855C9.82904 1.75428 8.83305 4.36549 8.36031 6.74194H14.6397ZM0.870585 8.16129C0.629295 9.06697 0.5 10.0183 0.5 11C0.5 11.9817 0.629295 12.933 0.870585 13.8387H6.70015C6.48109 12.0089 6.47155 10.0707 6.70015 8.16129H0.870585ZM6.91621 6.74194C7.34091 4.45314 8.16529 2.0931 9.50627 0.180746C5.81691 0.85627 2.77088 3.37203 1.35476 6.74194H6.91621Z" fill="#FF2D55"/>
</svg>
