<svg width="29" height="30" viewBox="0 0 29 30" fill="none" xmlns="http://www.w3.org/2000/svg">
<path d="M27.4482 0H2.44025C2.02874 0 1.63409 0.170269 1.34312 0.473349C1.05214 0.77643 0.888672 1.1875 0.888672 1.61612V27.6647C0.888775 28.0933 1.05229 28.5042 1.34326 28.8072C1.63422 29.1102 2.02881 29.2804 2.44025 29.2804H15.9035V17.9416H12.2401V13.5227H15.9035V10.2636C15.9035 6.48154 18.1212 4.42256 21.3602 4.42256C22.9118 4.42256 24.2451 4.54253 24.6339 4.59662V8.54907L22.3874 8.55029C20.6258 8.55029 20.2849 9.42219 20.2849 10.7016V13.5231H24.486L23.939 17.942H20.2849V29.2804H27.4486C27.86 29.2803 28.2546 29.11 28.5454 28.8069C28.8363 28.5038 28.9998 28.0928 28.9998 27.6643V1.61612C28.9998 1.1875 28.8363 0.77643 28.5453 0.473349C28.2543 0.170269 27.8597 0 27.4482 0Z" fill="#55BCB2"/>
</svg>
