<svg width="20" height="17" viewBox="0 0 20 17" fill="none" xmlns="http://www.w3.org/2000/svg">
<path d="M6.70277 15.0095C6.70277 14.7064 6.78922 14.4157 6.9431 14.2014C7.09697 13.987 7.30567 13.8666 7.52329 13.8666H12.4464C12.664 13.8666 12.8727 13.987 13.0266 14.2014C13.1804 14.4157 13.2669 14.7064 13.2669 15.0095C13.2669 15.3126 13.1804 15.6033 13.0266 15.8176C12.8727 16.0319 12.664 16.1523 12.4464 16.1523H7.52329C7.30567 16.1523 7.09697 16.0319 6.9431 15.8176C6.78922 15.6033 6.70277 15.3126 6.70277 15.0095ZM3.42072 8.15234C3.42072 7.84924 3.50717 7.55855 3.66105 7.34422C3.81492 7.1299 4.02362 7.00949 4.24124 7.00949H15.7284C15.946 7.00949 16.1547 7.1299 16.3086 7.34422C16.4625 7.55855 16.5489 7.84924 16.5489 8.15234C16.5489 8.45545 16.4625 8.74614 16.3086 8.96047C16.1547 9.17479 15.946 9.2952 15.7284 9.2952H4.24124C4.02362 9.2952 3.81492 9.17479 3.66105 8.96047C3.50717 8.74614 3.42072 8.45545 3.42072 8.15234ZM0.138672 1.2952C0.138672 0.992096 0.225119 0.701406 0.378995 0.487079C0.532871 0.272752 0.741571 0.152344 0.959185 0.152344H19.0105C19.2281 0.152344 19.4368 0.272752 19.5907 0.487079C19.7445 0.701406 19.831 0.992096 19.831 1.2952C19.831 1.59831 19.7445 1.889 19.5907 2.10332C19.4368 2.31765 19.2281 2.43806 19.0105 2.43806H0.959185C0.741571 2.43806 0.532871 2.31765 0.378995 2.10332C0.225119 1.889 0.138672 1.59831 0.138672 1.2952Z" fill="#303030"/>
</svg>
