<svg width="24" height="24" viewBox="0 0 24 24" fill="none" xmlns="http://www.w3.org/2000/svg">
<path d="M21.8266 8.65603C21.9302 7.7683 21.8201 6.86569 21.5044 6.03211C21.1597 5.12184 20.5827 4.32811 19.8356 3.73972C19.0884 3.15123 18.2002 2.79134 17.2691 2.70149C16.3994 2.61758 15.5256 2.77243 14.7321 3.14867C13.7086 2.12446 12.4285 1.4254 11.039 1.13671C9.59027 0.835705 8.08976 0.99479 6.72741 1.59321C5.36524 2.19155 4.2036 3.20161 3.38741 4.4938C2.60408 5.73397 2.17206 7.18145 2.13864 8.66706C1.96798 8.71331 1.80437 8.78489 1.65282 8.87974C1.43938 9.01332 1.25443 9.19017 1.10834 9.39917C0.962266 9.60814 0.85785 9.84522 0.80068 10.0962C0.743512 10.3473 0.734617 10.6077 0.774462 10.8622L0.774495 10.8624C1.49244 15.424 3.26291 18.4148 6.14209 19.7254V20.6998C6.14209 21.4351 6.41849 22.1428 6.91446 22.6667C7.41087 23.191 8.08716 23.4883 8.79541 23.4883H15.2043C15.9125 23.4883 16.5888 23.191 17.0852 22.6667C17.5812 22.1428 17.8576 21.4351 17.8576 20.6998V19.7254C20.7368 18.4148 22.5073 15.424 23.2252 10.8624C23.2664 10.601 23.2562 10.3333 23.1951 10.076C23.134 9.81869 23.0231 9.57665 22.8688 9.36516C22.7145 9.15365 22.5198 8.97703 22.2964 8.84707C22.1486 8.76116 21.9906 8.69693 21.8266 8.65603ZM5.3476 8.60374H4.24396C4.30297 7.18608 4.8621 5.84152 5.81278 4.83739C6.81874 3.77487 8.1801 3.18069 9.59652 3.18069C11.0129 3.18069 12.3743 3.77487 13.3803 4.83739C14.3309 5.84152 14.8901 7.18608 14.9491 8.60374H13.8454C13.7874 7.51043 13.3506 6.4721 12.6104 5.69027C11.8135 4.84858 10.7297 4.37299 9.59652 4.37299C8.46333 4.37299 7.37951 4.84858 6.58263 5.69027C5.84241 6.4721 5.40559 7.51043 5.3476 8.60374ZM11.1144 7.23066C11.4641 7.60008 11.6833 8.08511 11.737 8.60374H7.45607C7.5097 8.08511 7.7289 7.60008 8.07865 7.23066C8.48367 6.80288 9.02997 6.56529 9.59652 6.56529C10.1631 6.56529 10.7094 6.80288 11.1144 7.23066ZM19.6976 7.37369C19.7774 7.77968 19.7804 8.19771 19.7073 8.60374H18.5679C18.6379 8.37382 18.6668 8.13132 18.6521 7.88861C18.6293 7.51121 18.502 7.14794 18.2845 6.84399C18.0669 6.53991 17.7681 6.308 17.4237 6.17923C17.1526 6.07786 16.8637 6.04435 16.5797 6.08C16.4412 5.69466 16.2757 5.32241 16.0846 4.96744C16.3148 4.90579 16.5559 4.87302 16.8062 4.87299C17.2544 4.87414 17.6971 4.98328 18.1005 5.19282C18.5042 5.40243 18.8584 5.70726 19.1356 6.0851C19.4128 6.46298 19.6053 6.90364 19.6976 7.37369ZM8.2443 20.6998V20.1037H15.7554V20.6998C15.7554 20.8622 15.6942 21.0154 15.5892 21.1263C15.4847 21.2367 15.3459 21.296 15.2043 21.296H8.79541C8.6538 21.296 8.51502 21.2367 8.41048 21.1263C8.3055 21.0154 8.2443 20.8622 8.2443 20.6998ZM16.5276 17.9114H7.47207C5.1381 17.1001 3.59026 14.8653 2.89559 10.796H21.1041C20.4094 14.8653 18.8616 17.1001 16.5276 17.9114Z" fill="#7D7D7D" stroke="#7D7D7D" stroke-width="0.5"/>
</svg>
