<svg width="86" height="94" viewBox="0 0 86 94" fill="none" xmlns="http://www.w3.org/2000/svg">
<path d="M10.6667 93.3333C7.73333 93.3333 5.22311 92.2898 3.136 90.2027C1.04533 88.112 0 85.6 0 82.6667V34.6667C0 32.9778 0.378666 31.3778 1.136 29.8667C1.88978 28.3556 2.93333 27.1111 4.26667 26.1333L36.2667 2.13333C38.1333 0.711112 40.2667 0 42.6667 0C45.0667 0 47.2 0.711112 49.0667 2.13333L81.0667 26.1333C82.4 27.1111 83.4453 28.3556 84.2027 29.8667C84.9564 31.3778 85.3333 32.9778 85.3333 34.6667V82.6667C85.3333 85.6 84.2898 88.112 82.2027 90.2027C80.112 92.2898 77.6 93.3333 74.6667 93.3333H10.6667ZM10.6667 82.6667H74.6667V34.6667L42.6667 10.6667L10.6667 34.6667V82.6667ZM32 56V74.6667C32 75.3778 32.2667 76 32.8 76.5333C33.3333 77.0667 33.9556 77.3333 34.6667 77.3333C35.3778 77.3333 36 77.0667 36.5333 76.5333C37.0667 76 37.3333 75.3778 37.3333 74.6667V56C39.5556 56 41.4436 55.2213 42.9973 53.664C44.5547 52.1102 45.3333 50.2222 45.3333 48V34.6667C45.3333 33.9556 45.0667 33.3333 44.5333 32.8C44 32.2667 43.3778 32 42.6667 32C41.9556 32 41.3333 32.2667 40.8 32.8C40.2667 33.3333 40 33.9556 40 34.6667V48H37.3333V34.6667C37.3333 33.9556 37.0667 33.3333 36.5333 32.8C36 32.2667 35.3778 32 34.6667 32C33.9556 32 33.3333 32.2667 32.8 32.8C32.2667 33.3333 32 33.9556 32 34.6667V48H29.3333V34.6667C29.3333 33.9556 29.0667 33.3333 28.5333 32.8C28 32.2667 27.3778 32 26.6667 32C25.9556 32 25.3333 32.2667 24.8 32.8C24.2667 33.3333 24 33.9556 24 34.6667V48C24 50.2222 24.7787 52.1102 26.336 53.664C27.8898 55.2213 29.7778 56 32 56ZM56 77.3333C56.7111 77.3333 57.3333 77.0667 57.8667 76.5333C58.4 76 58.6667 75.3778 58.6667 74.6667V35.2C58.6667 34.4889 58.4 33.8667 57.8667 33.3333C57.3333 32.8 56.7111 32.5333 56 32.5333C53.5111 32.5333 51.5556 33.5556 50.1333 35.6C48.7111 37.6444 48 40 48 42.6667V56C48 56.7111 48.2667 57.3333 48.8 57.8667C49.3333 58.4 49.9556 58.6667 50.6667 58.6667H53.3333V74.6667C53.3333 75.3778 53.6 76 54.1333 76.5333C54.6667 77.0667 55.2889 77.3333 56 77.3333ZM10.6667 82.6667H74.6667H10.6667Z" fill="#FF2D55"/>
</svg>
