<svg width="19" height="24" viewBox="0 0 19 24" fill="none" xmlns="http://www.w3.org/2000/svg">
<path d="M15.5716 0.85H15.5714L3.42857 0.85L3.42842 0.85C2.74933 0.850691 2.09566 1.09524 1.61141 1.53392C1.12666 1.97304 0.850779 2.57177 0.85 3.19981V3.2L0.85 21.5333L0.85 21.5335C0.850538 21.9671 1.04105 22.3795 1.37404 22.6811C1.70653 22.9823 2.15443 23.1495 2.6189 23.15H2.61905H16.381H16.3811C16.8456 23.1495 17.2935 22.9823 17.626 22.6811C17.9589 22.3795 18.1495 21.9671 18.15 21.5335V21.5333V3.2V3.19981C18.1492 2.57177 17.8733 1.97304 17.3886 1.53392C16.9043 1.09524 16.2507 0.850691 15.5716 0.85ZM16.231 21.3833H2.76905V11.4167H16.231V21.3833ZM16.231 9.65H2.76905L2.76905 3.2002C2.76905 3.20017 2.76905 3.20014 2.76905 3.20011C2.76927 3.05048 2.83486 2.90365 2.95714 2.79288C3.07993 2.68164 3.24932 2.61686 3.42873 2.61667H15.5713C15.7507 2.61686 15.9201 2.68164 16.0429 2.79288C16.1652 2.90367 16.2308 3.05054 16.231 3.2002V9.65Z" fill="#7D7D7D" stroke="#7D7D7D" stroke-width="0.3"/>
<path d="M3.83203 12.9479H3.68203V13.0979V17.4979V17.6479H3.83203H5.45108H5.60108V17.4979V13.0979V12.9479H5.45108H3.83203ZM3.83203 4.88125H3.68203V5.03125V7.96458V8.11458H3.83203H5.45108H5.60108V7.96458V5.03125V4.88125H5.45108H3.83203Z" fill="#7D7D7D" stroke="#7D7D7D" stroke-width="0.3"/>
</svg>
