<svg width="31" height="29" viewBox="0 0 31 29" fill="none" xmlns="http://www.w3.org/2000/svg">
<path d="M15.4349 0.5C23.5188 0.5 30.072 6.4701 30.072 13.8347C30.072 14.356 30.0383 14.8706 29.974 15.3772C29.3629 14.8066 28.6542 14.3302 27.8754 13.9667V13.8347C27.8754 12.9162 27.7569 12.0229 27.53 11.1683H22.6159C22.6891 11.8589 22.733 12.5682 22.7476 13.2894C21.9857 13.4173 21.2482 13.6455 20.5583 13.9667V13.8347C20.5583 12.9135 20.5057 12.0216 20.4061 11.167H10.4637C10.2063 13.3872 10.2727 15.6287 10.6613 17.833H16.7154C16.4409 18.4741 16.2675 19.1474 16.2003 19.8328H11.1325C12.0866 23.0525 13.7461 25.1683 15.4349 25.1683C16.0993 25.1683 16.7608 24.839 17.3754 24.2431C17.9037 25.0643 18.593 25.8723 19.4227 26.6668C18.154 26.9935 16.8164 27.1681 15.4335 27.1681C7.35103 27.1681 0.800781 21.198 0.800781 13.8347C0.799318 6.4701 7.35103 0.5 15.4349 0.5ZM8.86127 19.8342H4.87785C6.29101 21.8934 8.3905 23.4865 10.8691 24.3804C10.1052 23.2872 9.47444 21.9193 9.01054 20.3608L8.86127 19.8342ZM8.25542 11.167H3.34127L3.33395 11.1896C3.10786 12.0562 2.9944 12.944 2.9959 13.8347C2.99385 15.2008 3.26357 16.5559 3.792 17.8343H8.43542C8.22114 16.5101 8.115 15.1733 8.11785 13.8347C8.11785 12.9228 8.16468 12.0296 8.25688 11.167H8.25542ZM10.8705 3.28773L10.8369 3.2984C7.84106 4.38795 5.42443 6.49162 4.09346 9.16851H8.55395C9.01346 6.83273 9.81249 4.79826 10.8705 3.28907V3.28773ZM15.4364 2.49981L15.2652 2.50648C13.4154 2.66246 11.6257 5.33021 10.7959 9.16851H20.0769C19.2486 5.34221 17.4676 2.67713 15.6208 2.50914L15.4349 2.49981H15.4364ZM20.0022 3.2864L20.1574 3.51971C21.1379 5.00224 21.8798 6.94872 22.3159 9.16851H26.7764C25.5059 6.6142 23.2447 4.57738 20.4266 3.44905L20.0022 3.28773V3.2864ZM30.8008 20.5008C30.8008 18.9096 30.107 17.3836 28.872 16.2585C27.637 15.1334 25.962 14.5013 24.2154 14.5013C22.4689 14.5013 20.7939 15.1334 19.5589 16.2585C18.3239 17.3836 17.6301 18.9096 17.6301 20.5008C17.6301 22.9845 19.7066 25.5869 23.7764 28.3667C23.903 28.4532 24.0571 28.5 24.2154 28.5C24.3737 28.5 24.5278 28.4532 24.6544 28.3667C28.7227 25.5869 30.8008 22.9845 30.8008 20.5008ZM22.0203 20.5008C22.0127 20.2339 22.0639 19.9683 22.1708 19.7198C22.2776 19.4712 22.4381 19.2446 22.6426 19.0534C22.8471 18.8622 23.0916 18.7103 23.3616 18.6065C23.6316 18.5028 23.9216 18.4493 24.2147 18.4493C24.5077 18.4493 24.7978 18.5028 25.0678 18.6065C25.3378 18.7103 25.5823 18.8622 25.7868 19.0534C25.9913 19.2446 26.1517 19.4712 26.2586 19.7198C26.3655 19.9683 26.4166 20.2339 26.4091 20.5008C26.4091 21.0311 26.1778 21.5398 25.7661 21.9148C25.3545 22.2899 24.7961 22.5006 24.214 22.5006C23.6318 22.5006 23.0734 22.2899 22.6618 21.9148C22.2501 21.5398 22.0188 21.0311 22.0188 20.5008H22.0203Z" fill="#7D7D7D"/>
</svg>
