<svg width="98" height="97" viewBox="0 0 98 97" fill="none" xmlns="http://www.w3.org/2000/svg">
<path d="M4 4C22.0492 17.3811 45.0824 45.5496 48.5 93C52.4916 62.6599 55.175 50.725 66.3 30.7"  stroke="#7D7D7D" stroke-width="8" stroke-linecap="round" stroke-linejoin="round"/>
<path d="M85.7688 24.1718C90.5008 31.4022 93.0144 39.8588 93 48.5C93 73.0773 73.0774 93 48.5 93C23.9227 93 4 73.0773 4 48.5C4 23.9227 23.9227 4 48.5 4C57.4134 4 65.7171 6.62105 72.6769 11.1333"  stroke="#7D7D7D" stroke-width="8" stroke-linecap="round" stroke-linejoin="round"/>
<path d="M71.2172 12.9C66.7583 18.5693 66.1175 24.4077 66.3222 30.7C74.7772 30.255 79.6855 29.8056 85.4572 24.47C91.7139 18.685 92.5772 14.235 93.0222 4C81.0072 4.445 76.8998 5.66875 71.2172 12.9Z" stroke="#7D7D7D" stroke-width="8" stroke-linecap="round" stroke-linejoin="round"/>
</svg>
