<svg width="22" height="22" viewBox="0 0 22 22" fill="none" xmlns="http://www.w3.org/2000/svg">
<path d="M21.4107 20.625H20.4286V1.03125C20.4286 0.461699 19.9009 0 19.25 0H2.75C2.09908 0 1.57143 0.461699 1.57143 1.03125V20.625H0.589286C0.263853 20.625 0 20.8559 0 21.1406V22H22V21.1406C22 20.8559 21.7361 20.625 21.4107 20.625ZM6.28571 3.26562C6.28571 2.98087 6.54957 2.75 6.875 2.75H8.83929C9.16472 2.75 9.42857 2.98087 9.42857 3.26562V4.98438C9.42857 5.26913 9.16472 5.5 8.83929 5.5H6.875C6.54957 5.5 6.28571 5.26913 6.28571 4.98438V3.26562ZM6.28571 7.39062C6.28571 7.10587 6.54957 6.875 6.875 6.875H8.83929C9.16472 6.875 9.42857 7.10587 9.42857 7.39062V9.10938C9.42857 9.39413 9.16472 9.625 8.83929 9.625H6.875C6.54957 9.625 6.28571 9.39413 6.28571 9.10938V7.39062ZM8.83929 13.75H6.875C6.54957 13.75 6.28571 13.5191 6.28571 13.2344V11.5156C6.28571 11.2309 6.54957 11 6.875 11H8.83929C9.16472 11 9.42857 11.2309 9.42857 11.5156V13.2344C9.42857 13.5191 9.16472 13.75 8.83929 13.75ZM12.5714 20.625H9.42857V17.0156C9.42857 16.7309 9.69242 16.5 10.0179 16.5H11.9821C12.3076 16.5 12.5714 16.7309 12.5714 17.0156V20.625ZM15.7143 13.2344C15.7143 13.5191 15.4504 13.75 15.125 13.75H13.1607C12.8353 13.75 12.5714 13.5191 12.5714 13.2344V11.5156C12.5714 11.2309 12.8353 11 13.1607 11H15.125C15.4504 11 15.7143 11.2309 15.7143 11.5156V13.2344ZM15.7143 9.10938C15.7143 9.39413 15.4504 9.625 15.125 9.625H13.1607C12.8353 9.625 12.5714 9.39413 12.5714 9.10938V7.39062C12.5714 7.10587 12.8353 6.875 13.1607 6.875H15.125C15.4504 6.875 15.7143 7.10587 15.7143 7.39062V9.10938ZM15.7143 4.98438C15.7143 5.26913 15.4504 5.5 15.125 5.5H13.1607C12.8353 5.5 12.5714 5.26913 12.5714 4.98438V3.26562C12.5714 2.98087 12.8353 2.75 13.1607 2.75H15.125C15.4504 2.75 15.7143 2.98087 15.7143 3.26562V4.98438Z" fill="#FF2D55"/>
</svg>
