<svg width="30" height="30" viewBox="0 0 30 30" fill="none" xmlns="http://www.w3.org/2000/svg">
<path d="M15.0558 11.0094C14.3246 11.0094 13.6098 11.2224 13.0019 11.6213C12.3939 12.0203 11.92 12.5873 11.6402 13.2508C11.3604 13.9142 11.2872 14.6442 11.4298 15.3485C11.5725 16.0528 11.9246 16.6998 12.4416 17.2075C12.9587 17.7153 13.6174 18.0611 14.3346 18.2012C15.0517 18.3413 15.7951 18.2694 16.4706 17.9946C17.1462 17.7198 17.7236 17.2544 18.1298 16.6574C18.536 16.0603 18.7529 15.3583 18.7529 14.6402C18.7529 14.1634 18.6572 13.6913 18.4714 13.2508C18.2857 12.8103 18.0133 12.41 17.67 12.0729C17.3267 11.7357 16.9192 11.4683 16.4706 11.2858C16.0221 11.1033 15.5413 11.0094 15.0558 11.0094ZM29.8589 7.42258C29.851 6.29201 29.639 5.17176 29.2328 4.1139C28.9335 3.33981 28.4706 2.63684 27.8744 2.05136C27.2783 1.46589 26.5625 1.01122 25.7742 0.71737C24.6971 0.318371 23.5564 0.110183 22.4052 0.102481C20.4821 -9.81702e-08 19.9156 0 15.0558 0C10.196 0 9.62954 -9.81702e-08 7.70649 0.102481C6.55527 0.110183 5.41458 0.318371 4.33741 0.71737C3.5492 1.01122 2.8334 1.46589 2.23724 2.05136C1.64108 2.63684 1.17812 3.33981 0.8789 4.1139C0.472619 5.17176 0.260632 6.29201 0.252789 7.42258C0.148437 9.31117 0.148438 9.8675 0.148438 14.6402C0.148438 19.4129 0.148437 19.9692 0.252789 21.8578C0.268835 22.9924 0.480536 24.1161 0.8789 25.1812C1.17679 25.9517 1.63937 26.6506 2.23547 27.2308C2.82908 27.8198 3.54641 28.2744 4.33741 28.563C5.41458 28.962 6.55527 29.1702 7.70649 29.1779C9.62954 29.2804 10.196 29.2804 15.0558 29.2804C19.9156 29.2804 20.4821 29.2804 22.4052 29.1779C23.5564 29.1702 24.6971 28.962 25.7742 28.563C26.5652 28.2744 27.2826 27.8198 27.8762 27.2308C28.4723 26.6506 28.9349 25.9517 29.2328 25.1812C29.6386 24.1181 29.8506 22.9931 29.8589 21.8578C29.9632 19.9692 29.9632 19.4129 29.9632 14.6402C29.9632 9.8675 29.9632 9.31117 29.8589 7.42258ZM26.0724 19.1347C26.0246 20.0382 25.8282 20.9281 25.491 21.77C25.2016 22.4723 24.7714 23.1102 24.2259 23.6459C23.6804 24.1816 23.0308 24.6041 22.3157 24.8883C21.4504 25.2011 20.5392 25.3741 19.6175 25.4008H10.4942C9.57249 25.3741 8.66129 25.2011 7.79593 24.8883C7.05668 24.6186 6.38908 24.1881 5.84306 23.6293C5.30292 23.1041 4.88577 22.4696 4.62066 21.77C4.30098 20.921 4.12962 20.0251 4.1138 19.1201V10.1603C4.12962 9.25528 4.30098 8.35939 4.62066 7.51043C4.89537 6.78442 5.33364 6.1288 5.90269 5.59256C6.43985 5.06496 7.08524 4.65572 7.79593 4.39206C8.66129 4.07936 9.57249 3.90631 10.4942 3.87965H19.6175C20.5392 3.90631 21.4504 4.07936 22.3157 4.39206C23.055 4.66185 23.7226 5.09226 24.2686 5.65112C24.8087 6.17633 25.2259 6.81082 25.491 7.51043C25.8094 8.36027 25.9856 9.25514 26.0128 10.1603V14.6402C26.0128 17.6561 26.1171 17.9635 26.0724 19.1201V19.1347ZM23.6872 8.24244C23.5097 7.76953 23.2299 7.34008 22.867 6.98369C22.5041 6.62731 22.0668 6.35248 21.5853 6.17817C20.9241 5.95309 20.2277 5.84406 19.528 5.85608H10.5836C9.88038 5.86283 9.18391 5.9917 8.52639 6.23673C8.05223 6.40312 7.61957 6.66673 7.25715 7.01002C6.89474 7.35332 6.61088 7.76844 6.42445 8.22779C6.20796 8.87982 6.10219 9.56239 6.11139 10.2481V19.0323C6.12617 19.7221 6.25714 20.4048 6.49899 21.0526C6.67648 21.5255 6.95632 21.955 7.31921 22.3114C7.6821 22.6677 8.1194 22.9426 8.60093 23.1169C9.23698 23.3466 9.9063 23.4751 10.5836 23.4975H19.528C20.2313 23.4908 20.9277 23.3619 21.5853 23.1169C22.0668 22.9426 22.5041 22.6677 22.867 22.3114C23.2299 21.955 23.5097 21.5255 23.6872 21.0526C23.9367 20.4069 24.0679 19.7229 24.0748 19.0323V10.2481C24.0752 9.55683 23.9438 8.87156 23.6872 8.22779V8.24244ZM15.0558 20.2328C14.3087 20.2328 13.5689 20.088 12.8788 19.8068C12.1888 19.5255 11.562 19.1134 11.0344 18.5939C10.5068 18.0743 10.0887 17.4577 9.80417 16.7793C9.51962 16.1008 9.37415 15.3739 9.37611 14.6402C9.37612 13.5335 9.71048 12.4516 10.3369 11.5316C10.9633 10.6116 11.8535 9.89482 12.895 9.47197C13.9364 9.04912 15.0821 8.93922 16.1872 9.1562C17.2923 9.37318 18.3069 9.90728 19.1027 10.6909C19.8985 11.4745 20.4397 12.4723 20.6578 13.5582C20.8758 14.644 20.7609 15.7689 20.3276 16.7905C19.8943 17.8122 19.1621 18.6846 18.2236 19.2974C17.2852 19.9101 16.1828 20.2357 15.0558 20.2328ZM21.0188 10.1457C20.6892 10.1114 20.3843 9.95859 20.1626 9.71666C19.941 9.47473 19.8183 9.1608 19.8183 8.83536C19.8183 8.50992 19.941 8.196 20.1626 7.95407C20.3843 7.71214 20.6892 7.55932 21.0188 7.52506C21.3483 7.55932 21.6533 7.71214 21.8749 7.95407C22.0966 8.196 22.2192 8.50992 22.2192 8.83536C22.2192 9.1608 22.0966 9.47473 21.8749 9.71666C21.6533 9.95859 21.3483 10.1114 21.0188 10.1457Z" fill="#55BCB2"/>
</svg>
