<svg width="222" height="49" viewBox="0 0 222 49" fill="none" xmlns="http://www.w3.org/2000/svg">
<path d="M29.1824 7C0.939304 7 0.939304 43.5508 29.1818 43.5508H29.1824C37.1698 43.5508 43.6446 35.3683 43.6446 25.2754C43.6446 15.1813 37.1698 7 29.1824 7ZM29.1824 42.4897C21.6584 42.4897 15.5596 34.7835 15.5596 25.2754C15.5596 15.7685 21.6584 8.06241 29.1824 8.06241C36.7064 8.06241 42.8046 15.7685 42.8046 25.2754C42.8046 34.7829 36.7064 42.4897 29.1824 42.4897Z" fill="#FF2D55"/>
<path d="M29.1816 10.2266C22.6033 10.2266 17.2715 16.9641 17.2715 25.2764C17.2715 33.5886 22.6033 40.3256 29.1816 40.3256C35.7586 40.3256 41.0911 33.5886 41.0911 25.2764C41.0911 16.9641 35.7592 10.2266 29.1816 10.2266ZM29.1816 39.4112C23.1053 39.4112 18.1626 33.0708 18.1626 25.2758C18.1626 17.4813 23.1053 11.1397 29.1816 11.1397C35.2572 11.1397 40.1999 17.4813 40.1999 25.2758C40.1999 33.0708 35.2572 39.4112 29.1816 39.4112Z" fill="#FF2D55"/>
<path d="M36.0326 20.2751L31.4671 22.3877L33.1388 16.6182L30.0205 21.3302L29.1822 15.2773L28.3446 21.3302L25.2257 16.6182L26.8968 22.3877L22.3319 20.2738L26.0598 24.2152L21.2715 25.2746L26.0604 26.3352L22.3319 30.2748L26.8986 28.1615L25.2257 33.9298L28.3458 29.2197L29.1834 35.2713L30.0217 29.2197L33.1412 33.9298L31.4677 28.1615L36.0331 30.276L32.3029 26.3346L37.0924 25.2746L32.3029 24.2159L36.0326 20.2751ZM34.2747 25.2746L32.1776 25.7388L31.1308 25.9709L31.8764 26.7586L33.4329 28.404L31.7106 27.6053L30.526 27.0571L30.8973 28.3351L31.4772 30.3339L30.5124 28.8761L29.6492 27.573L29.4329 29.1332L29.1828 30.9369L28.9333 29.1332L28.7177 27.573L27.8539 28.8761L26.8873 30.3357L27.4683 28.3345L27.8384 27.0577L26.6532 27.6053L24.9292 28.404L26.4863 26.7586L27.2319 25.9709L26.1851 25.7388L24.088 25.2746L26.1851 24.8104L27.2319 24.5789L26.4863 23.7906L24.9304 22.1459L26.6515 22.9439L27.8355 23.4921L27.4659 22.2147L26.8855 20.2111L27.8527 21.6725L28.7159 22.9774L28.9321 21.4161L29.1816 19.6117L29.4317 21.4161L29.648 22.9774L30.5112 21.6725L31.4766 20.2141L30.8961 22.2147L30.5266 23.4915L31.71 22.9439L33.4317 22.1471L31.8752 23.7913L31.129 24.5795L32.1764 24.811L34.2747 25.2746Z" fill="#FF2D55"/>
<path d="M28.3205 17.5204L27.5465 16.3691L27.2827 17.8427L28.0562 18.9928L28.3205 17.5204ZM26.8104 15.4645L26.0357 14.3125L25.7719 15.7861L26.5454 16.9369L26.8104 15.4645ZM31.4032 16.0499L30.3915 16.8558L30.2953 18.3611L31.3052 17.5564L31.4032 16.0499ZM30.0434 33.0278L30.8169 34.1791L31.0818 32.7061L30.3077 31.556L30.0434 33.0278ZM31.5535 35.0856L32.3276 36.2351L32.592 34.7633L31.8185 33.612L31.5535 35.0856ZM26.9613 34.4983L27.9724 33.6936L28.0686 32.1889L27.0587 32.993L26.9613 34.4983ZM34.1526 23.8517L35.3176 24.1843L36.2289 23.2078L35.0633 22.8733L34.1526 23.8517ZM36.9466 22.2775L37.8567 21.2992L36.6911 20.9654L35.7798 21.9425L36.9466 22.2775ZM34.6534 26.6813L35.2903 27.9575L36.4808 28.08L35.8445 26.8025L34.6534 26.6813ZM24.2113 26.6965L23.0463 26.3633L22.135 27.3404L23.3012 27.6743L24.2113 26.6965ZM21.4191 28.2707L20.5078 29.2496L21.6746 29.5828L22.5841 28.6063L21.4191 28.2707ZM23.7117 23.8669L23.0742 22.59L21.8819 22.4676L22.52 23.7457L23.7117 23.8669ZM34.8305 19.563L33.6643 19.8993L33.1777 21.2773L34.3433 20.9428L34.8305 19.563ZM35.6449 16.9521L34.4811 17.289L33.9922 18.6669L35.159 18.3325L35.6449 16.9521ZM22.7184 33.5961L23.8834 33.2592L24.3705 31.8819L23.2061 32.2163L22.7184 33.5961ZM25.7541 18.7528L24.6628 18.1369L24.9278 19.6099L26.0191 20.2252L25.7541 18.7528ZM23.9535 19.1951L23.6885 17.7215L22.596 17.1068L22.8627 18.5786L23.9535 19.1951ZM34.4104 31.3537L34.6748 32.8273L35.7667 33.4414L35.5012 31.9696L34.4104 31.3537Z" fill="#F6C644"/>
</svg>
