<svg width="36" height="37" viewBox="0 0 36 37" fill="none" xmlns="http://www.w3.org/2000/svg">
<path d="M21.1824 0C-7.0607 0 -7.0607 36.5508 21.1818 36.5508H21.1824C29.1698 36.5508 35.6446 28.3683 35.6446 18.2754C35.6446 8.1813 29.1698 0 21.1824 0ZM21.1824 35.4897C13.6584 35.4897 7.55957 27.7835 7.55957 18.2754C7.55957 8.76855 13.6584 1.06241 21.1824 1.06241C28.7064 1.06241 34.8046 8.76855 34.8046 18.2754C34.8046 27.7829 28.7064 35.4897 21.1824 35.4897Z" fill="#FF2D55"/>
<path d="M21.1816 3.22656C14.6033 3.22656 9.27148 9.9641 9.27148 18.2764C9.27148 26.5886 14.6033 33.3256 21.1816 33.3256C27.7586 33.3256 33.0911 26.5886 33.0911 18.2764C33.0911 9.9641 27.7592 3.22656 21.1816 3.22656ZM21.1816 32.4112C15.1053 32.4112 10.1626 26.0708 10.1626 18.2758C10.1626 10.4813 15.1053 4.13972 21.1816 4.13972C27.2572 4.13972 32.1999 10.4813 32.1999 18.2758C32.1999 26.0708 27.2572 32.4112 21.1816 32.4112Z" fill="#FF2D55"/>
<path d="M28.0326 13.2751L23.4671 15.3877L25.1388 9.61815L22.0205 14.3302L21.1822 8.27734L20.3446 14.3302L17.2257 9.61815L18.8968 15.3877L14.3319 13.2738L18.0598 17.2152L13.2715 18.2746L18.0604 19.3352L14.3319 23.2748L18.8986 21.1615L17.2257 26.9298L20.3458 22.2197L21.1834 28.2713L22.0217 22.2197L25.1412 26.9298L23.4677 21.1615L28.0331 23.276L24.3029 19.3346L29.0924 18.2746L24.3029 17.2159L28.0326 13.2751ZM26.2747 18.2746L24.1776 18.7388L23.1308 18.9709L23.8764 19.7586L25.4329 21.404L23.7106 20.6053L22.526 20.0571L22.8973 21.3351L23.4772 23.3339L22.5124 21.8761L21.6492 20.573L21.4329 22.1332L21.1828 23.9369L20.9333 22.1332L20.7177 20.573L19.8539 21.8761L18.8873 23.3357L19.4683 21.3345L19.8384 20.0577L18.6532 20.6053L16.9292 21.404L18.4863 19.7586L19.2319 18.9709L18.1851 18.7388L16.088 18.2746L18.1851 17.8104L19.2319 17.5789L18.4863 16.7906L16.9304 15.1459L18.6515 15.9439L19.8355 16.4921L19.4659 15.2147L18.8855 13.2111L19.8527 14.6725L20.7159 15.9774L20.9321 14.4161L21.1816 12.6117L21.4317 14.4161L21.648 15.9774L22.5112 14.6725L23.4766 13.2141L22.8961 15.2147L22.5266 16.4915L23.71 15.9439L25.4317 15.1471L23.8752 16.7913L23.129 17.5795L24.1764 17.811L26.2747 18.2746Z" fill="#FF2D55"/>
<path d="M20.3205 10.5204L19.5465 9.36909L19.2827 10.8427L20.0562 11.9928L20.3205 10.5204ZM18.8104 8.46446L18.0357 7.3125L17.7719 8.78611L18.5454 9.93685L18.8104 8.46446ZM23.4032 9.04988L22.3915 9.85583L22.2953 11.3611L23.3052 10.5564L23.4032 9.04988ZM22.0434 26.0278L22.8169 27.1791L23.0818 25.7061L22.3077 24.556L22.0434 26.0278ZM23.5535 28.0856L24.3276 29.2351L24.592 27.7633L23.8185 26.612L23.5535 28.0856ZM18.9613 27.4983L19.9724 26.6936L20.0686 25.1889L19.0587 25.993L18.9613 27.4983ZM26.1526 16.8517L27.3176 17.1843L28.2289 16.2078L27.0633 15.8733L26.1526 16.8517ZM28.9466 15.2775L29.8567 14.2992L28.6911 13.9654L27.7798 14.9425L28.9466 15.2775ZM26.6534 19.6813L27.2903 20.9575L28.4808 21.08L27.8445 19.8025L26.6534 19.6813ZM16.2113 19.6965L15.0463 19.3633L14.135 20.3404L15.3012 20.6743L16.2113 19.6965ZM13.4191 21.2707L12.5078 22.2496L13.6746 22.5828L14.5841 21.6063L13.4191 21.2707ZM15.7117 16.8669L15.0742 15.59L13.8819 15.4676L14.52 16.7457L15.7117 16.8669ZM26.8305 12.563L25.6643 12.8993L25.1777 14.2773L26.3433 13.9428L26.8305 12.563ZM27.6449 9.95208L26.4811 10.289L25.9922 11.6669L27.159 11.3325L27.6449 9.95208ZM14.7184 26.5961L15.8834 26.2592L16.3705 24.8819L15.2061 25.2163L14.7184 26.5961ZM17.7541 11.7528L16.6628 11.1369L16.9278 12.6099L18.0191 13.2252L17.7541 11.7528ZM15.9535 12.1951L15.6885 10.7215L14.596 10.1068L14.8627 11.5786L15.9535 12.1951ZM26.4104 24.3537L26.6748 25.8273L27.7667 26.4414L27.5012 24.9696L26.4104 24.3537Z" fill="#F6C644"/>
</svg>
