<svg width="76" height="76" viewBox="0 0 76 76" fill="none" xmlns="http://www.w3.org/2000/svg">
<path d="M60.0685 24.611C60.0506 11.9819 49.8025 1.76346 37.1735 1.78127C24.5503 1.79909 14.326 12.0472 14.3438 24.6703C14.3497 30.1744 17.0572 35.0194 20.0081 39.5497C23.1075 44.3056 25.2153 48.8835 27.5547 53.9838C28.9263 56.9822 32.6669 58.1519 35.9325 58.3775C39.1269 58.5913 43.1822 58.2291 45.8541 56.0441C50.04 52.6241 50.135 46.081 52.8841 41.7169C56.2506 36.385 60.0744 31.2194 60.0685 24.611Z" fill="#FCC21B"/>
<path d="M43.4115 70.9377C43.7619 70.6824 44.0528 70.3855 44.2547 69.958C44.4981 69.4236 44.415 68.9189 44.3556 68.3549C44.3081 67.8739 44.3556 67.6661 44.6822 67.3336C45.0503 66.9596 45.4244 66.6211 45.4897 66.0689C45.5372 65.6593 45.4481 65.2674 45.3709 64.8755C45.3294 64.733 45.3056 64.5846 45.3056 64.4361C45.3887 64.1214 45.7865 63.9018 46.0062 63.688C46.5762 63.1358 47.1047 62.3699 47.2709 61.5921C47.3778 61.1052 47.354 60.4046 47.0453 59.9949C46.5881 59.3893 45.9765 59.6327 45.3947 59.8939C45.2047 59.9771 45.0384 60.0839 44.8484 60.173C41.2384 61.9246 36.9872 61.9246 33.1575 60.9568C32.1837 60.7133 31.21 60.4164 30.3015 59.9889C29.5831 59.6564 28.5678 59.2824 28.075 60.173C27.6594 60.9211 27.8731 61.9186 28.1759 62.6727C28.354 63.1121 28.74 63.4921 29.0606 63.8305C29.3694 64.1571 29.5059 64.3233 29.4169 64.7389C29.3337 65.1189 29.3931 65.4396 29.4287 65.8255C29.4822 66.348 29.5534 66.8468 29.8919 67.2683C30.2184 67.678 30.7053 67.9927 30.9962 68.4261C31.2515 68.8002 31.2456 69.3049 31.394 69.7264C31.6434 70.4152 32.2431 71.1455 32.8487 71.5611C33.5375 72.0302 34.4637 72.0005 35.0634 72.618C35.8531 73.4374 36.9812 74.0311 38.145 73.9599C39.57 73.8768 40.3359 72.7724 41.4225 72.0243C41.844 71.7333 42.3725 71.6086 42.8178 71.3355C43.0197 71.1989 43.2215 71.0743 43.4115 70.9377Z" fill="#78A3AD"/>
</svg>
