<svg width="24" height="24" viewBox="0 0 24 24" fill="none" xmlns="http://www.w3.org/2000/svg">
<path d="M21.8266 8.41775C21.9302 7.53002 21.8201 6.62741 21.5044 5.79383C21.1597 4.88356 20.5827 4.08983 19.8356 3.50144C19.0884 2.91295 18.2002 2.55306 17.2691 2.46321C16.3994 2.3793 15.5256 2.53415 14.7321 2.91039C13.7086 1.88618 12.4285 1.18712 11.039 0.898429C9.59027 0.597423 8.08976 0.756509 6.72741 1.35493C5.36524 1.95327 4.2036 2.96333 3.38741 4.25551C2.60408 5.49568 2.17206 6.94316 2.13864 8.42878C1.96798 8.47502 1.80437 8.54661 1.65282 8.64146C1.43938 8.77504 1.25443 8.95189 1.10834 9.16089C0.962266 9.36986 0.85785 9.60694 0.80068 9.85796C0.743512 10.109 0.734617 10.3694 0.774462 10.624L0.774495 10.6242C1.49244 15.1857 3.26291 18.1765 6.14209 19.4871V20.4616C6.14209 21.1968 6.41849 21.9045 6.91446 22.4284C7.41087 22.9527 8.08716 23.25 8.79541 23.25H15.2043C15.9125 23.25 16.5888 22.9527 17.0852 22.4284C17.5812 21.9045 17.8576 21.1968 17.8576 20.4616V19.4871C20.7368 18.1765 22.5073 15.1857 23.2252 10.6242C23.2664 10.3627 23.2562 10.095 23.1951 9.83774C23.134 9.58041 23.0231 9.33837 22.8688 9.12688C22.7145 8.91537 22.5198 8.73875 22.2964 8.60879C22.1486 8.52287 21.9906 8.45865 21.8266 8.41775ZM5.3476 8.36546H4.24396C4.30297 6.94779 4.8621 5.60324 5.81278 4.59911C6.81874 3.53659 8.1801 2.94241 9.59652 2.94241C11.0129 2.94241 12.3743 3.53659 13.3803 4.59911C14.3309 5.60324 14.8901 6.94779 14.9491 8.36546H13.8454C13.7874 7.27215 13.3506 6.23382 12.6104 5.45199C11.8135 4.6103 10.7297 4.13471 9.59652 4.13471C8.46333 4.13471 7.37951 4.6103 6.58263 5.45199C5.84241 6.23382 5.40559 7.27215 5.3476 8.36546ZM11.1144 6.99238C11.4641 7.3618 11.6833 7.84683 11.737 8.36546H7.45607C7.5097 7.84683 7.7289 7.3618 8.07865 6.99238C8.48367 6.5646 9.02997 6.32701 9.59652 6.32701C10.1631 6.32701 10.7094 6.5646 11.1144 6.99238ZM19.6976 7.13541C19.7774 7.5414 19.7804 7.95943 19.7073 8.36546H18.5679C18.6379 8.13554 18.6668 7.89304 18.6521 7.65033C18.6293 7.27293 18.502 6.90965 18.2845 6.6057C18.0669 6.30163 17.7681 6.06972 17.4237 5.94095C17.1526 5.83958 16.8637 5.80607 16.5797 5.84172C16.4412 5.45637 16.2757 5.08413 16.0846 4.72915C16.3148 4.66751 16.5559 4.63474 16.8062 4.63471C17.2544 4.63586 17.6971 4.745 18.1005 4.95454C18.5042 5.16415 18.8584 5.46898 19.1356 5.84682C19.4128 6.2247 19.6053 6.66536 19.6976 7.13541ZM8.2443 20.4616V19.8654H15.7554V20.4616C15.7554 20.6239 15.6942 20.7771 15.5892 20.888C15.4847 20.9984 15.3459 21.0577 15.2043 21.0577H8.79541C8.6538 21.0577 8.51502 20.9984 8.41048 20.888C8.3055 20.7771 8.2443 20.6239 8.2443 20.4616ZM16.5276 17.6731H7.47207C5.1381 16.8618 3.59026 14.627 2.89559 10.5578H21.1041C20.4094 14.627 18.8616 16.8618 16.5276 17.6731Z" fill="#FF2D55" stroke="#FF2D55" stroke-width="0.5"/>
</svg>
