<svg width="33" height="27" viewBox="0 0 33 27" fill="none" xmlns="http://www.w3.org/2000/svg">
<path d="M26.1076 10.1004L25.6976 10.857C25.5475 11.1375 25.2275 11.2539 24.9425 11.1427C24.3524 10.9099 23.8124 10.5766 23.3374 10.1586C23.1073 9.9575 23.0473 9.60299 23.1973 9.32784L23.6074 8.57119C23.2624 8.14789 22.9923 7.6558 22.8123 7.12138H21.9872C21.6872 7.12138 21.4272 6.89386 21.3772 6.57638C21.2772 5.94143 21.2722 5.27473 21.3772 4.61333C21.4272 4.29585 21.6872 4.06303 21.9872 4.06303H22.8123C22.9923 3.52862 23.2624 3.03653 23.6074 2.61323L23.1973 1.85658C23.0473 1.58143 23.1023 1.22692 23.3374 1.02585C23.8124 0.60784 24.3574 0.27449 24.9425 0.0416749C25.2275 -0.0694416 25.5475 0.0469662 25.6976 0.327403L26.1076 1.08405C26.6326 0.983519 27.1677 0.983519 27.6927 1.08405L28.1028 0.327403C28.2528 0.0469662 28.5728 -0.0694416 28.8578 0.0416749C29.4479 0.27449 29.9879 0.60784 30.4629 1.02585C30.693 1.22692 30.753 1.58143 30.603 1.85658L30.1929 2.61323C30.538 3.03653 30.808 3.52862 30.988 4.06303H31.8131C32.1131 4.06303 32.3731 4.29056 32.4231 4.60803C32.5231 5.24299 32.5281 5.90968 32.4231 6.57109C32.3731 6.88857 32.1131 7.12138 31.8131 7.12138H30.988C30.808 7.6558 30.538 8.14789 30.1929 8.57119L30.603 9.32784C30.753 9.60299 30.698 9.9575 30.4629 10.1586C29.9879 10.5766 29.4429 10.9099 28.8578 11.1427C28.5728 11.2539 28.2528 11.1375 28.1028 10.857L27.6927 10.1004C27.1727 10.2009 26.6326 10.2009 26.1076 10.1004ZM25.5825 6.9891C27.5077 8.55532 29.7029 6.23245 28.2228 4.19532C26.2976 2.62381 24.1024 4.95197 25.5825 6.9891ZM19.8171 15.1324L21.5022 16.0213C22.0072 16.3282 22.2273 16.979 22.0272 17.561C21.5822 18.8415 20.7071 20.0162 19.8971 21.0427C19.527 21.5136 18.887 21.63 18.3819 21.3231L16.9268 20.4342C16.1268 21.1591 15.1967 21.7358 14.1816 22.1115V23.8894C14.1816 24.5032 13.7666 25.0323 13.1965 25.1381C11.9664 25.3604 10.6763 25.3709 9.40121 25.1381C8.82616 25.0323 8.40112 24.5085 8.40112 23.8894V22.1115C7.38604 21.7306 6.45596 21.1591 5.6559 20.4342L4.20078 21.3178C3.70073 21.6247 3.05568 21.5083 2.68565 21.0374C1.87558 20.0109 1.02051 18.8362 0.575476 17.561C0.375459 16.9843 0.595477 16.3335 1.10052 16.0213L2.76566 15.1324C2.57064 14.0265 2.57064 12.8889 2.76566 11.7777L1.10052 10.8835C0.595477 10.5766 0.370459 9.92575 0.575476 9.349C1.02051 8.06852 1.87558 6.89386 2.68565 5.86735C3.05568 5.39643 3.69573 5.28002 4.20078 5.58692L5.6559 6.47585C6.45596 5.75095 7.38604 5.1742 8.40112 4.79852V3.01536C8.40112 2.40687 8.81116 1.87774 9.3812 1.77192C10.6113 1.54968 11.9064 1.5391 13.1815 1.76663C13.7566 1.87245 14.1816 2.39629 14.1816 3.01536V4.79323C15.1967 5.1742 16.1268 5.74566 16.9268 6.47056L18.3819 5.58163C18.882 5.27473 19.527 5.39114 19.8971 5.86206C20.7071 6.88857 21.5572 8.06323 22.0022 9.34371C22.2023 9.92046 22.0072 10.5713 21.5022 10.8835L19.8171 11.7724C20.0121 12.8836 20.0121 14.0212 19.8171 15.1324ZM13.9366 16.2488C16.8968 12.1745 12.5015 7.52352 8.65114 10.6559C5.6909 14.7302 10.0863 19.3812 13.9366 16.2488ZM26.1076 25.9159L25.6976 26.6726C25.5475 26.953 25.2275 27.0694 24.9425 26.9583C24.3524 26.7255 23.8124 26.3922 23.3374 25.9741C23.1073 25.7731 23.0473 25.4186 23.1973 25.1434L23.6074 24.3868C23.2624 23.9635 22.9923 23.4714 22.8123 22.937H21.9872C21.6872 22.937 21.4272 22.7094 21.3772 22.392C21.2772 21.757 21.2722 21.0903 21.3772 20.4289C21.4272 20.1114 21.6872 19.8786 21.9872 19.8786H22.8123C22.9923 19.3442 23.2624 18.8521 23.6074 18.4288L23.1973 17.6722C23.0473 17.397 23.1023 17.0425 23.3374 16.8414C23.8124 16.4234 24.3574 16.0901 24.9425 15.8573C25.2275 15.7461 25.5475 15.8625 25.6976 16.143L26.1076 16.8996C26.6326 16.7991 27.1677 16.7991 27.6927 16.8996L28.1028 16.143C28.2528 15.8625 28.5728 15.7461 28.8578 15.8573C29.4479 16.0901 29.9879 16.4234 30.4629 16.8414C30.693 17.0425 30.753 17.397 30.603 17.6722L30.1929 18.4288C30.538 18.8521 30.808 19.3442 30.988 19.8786H31.8131C32.1131 19.8786 32.3731 20.1061 32.4231 20.4236C32.5231 21.0586 32.5281 21.7253 32.4231 22.3867C32.3731 22.7042 32.1131 22.937 31.8131 22.937H30.988C30.808 23.4714 30.538 23.9635 30.1929 24.3868L30.603 25.1434C30.753 25.4186 30.698 25.7731 30.4629 25.9741C29.9879 26.3922 29.4429 26.7255 28.8578 26.9583C28.5728 27.0694 28.2528 26.953 28.1028 26.6726L27.6927 25.9159C27.1727 26.0165 26.6326 26.0165 26.1076 25.9159ZM25.5825 22.7994C27.5077 24.3656 29.7029 22.0427 28.2228 20.0056C26.2976 18.4394 24.1024 20.7623 25.5825 22.7994Z" fill="#7D7D7D"/>
</svg>
