<svg width="35" height="30" viewBox="0 0 35 30" fill="none" xmlns="http://www.w3.org/2000/svg">
<path d="M34.074 3.46634C32.7982 4.06399 31.4449 4.45609 30.0592 4.62958C31.5188 3.7061 32.611 2.25293 33.1324 0.540917C31.7604 1.40214 30.2592 2.00859 28.6936 2.33398C28.0396 1.59627 27.2492 1.00846 26.3715 0.606984C25.4938 0.205507 24.5474 -0.00108749 23.5911 4.3049e-06C19.7308 4.3049e-06 16.6005 3.30912 16.6005 7.39216C16.6005 7.97098 16.6624 8.53575 16.7819 9.07713C10.9719 8.76877 5.82112 5.82558 2.37314 1.35275C1.75146 2.48093 1.42478 3.76368 1.42663 5.06942C1.42571 6.28648 1.70911 7.48493 2.25165 8.55829C2.79419 9.63165 3.57907 10.5467 4.53654 11.2221C3.42661 11.1848 2.34114 10.8678 1.37043 10.2975C1.36955 10.3283 1.36955 10.3588 1.36955 10.3906C1.36955 13.9711 3.77897 16.9587 6.9765 17.6386C5.94691 17.9333 4.8674 17.9765 3.81968 17.765C4.70911 20.7011 7.29068 22.8391 10.3497 22.8989C7.87342 24.9538 4.81554 26.0684 1.66779 26.0635C1.1036 26.0635 0.547376 26.0288 0 25.9601C3.19634 28.1317 6.91638 29.2844 10.7156 29.2804C23.5739 29.2804 30.6053 18.0172 30.6053 8.24985C30.6053 7.9298 30.5982 7.61021 30.5849 7.2925C31.9542 6.24712 33.1359 4.95136 34.074 3.46634Z" fill="#55BCB2"/>
</svg>
