<svg width="121" height="97" viewBox="0 0 121 97" fill="none" xmlns="http://www.w3.org/2000/svg">
<path d="M60.2896 0.00417291C60.0204 0.0191777 59.7532 0.0613796 59.4915 0.12984L12.4461 12.2311C11.1389 12.5612 10.0829 13.5234 9.63173 14.7942L0.222888 41.6876C-0.119413 42.6751 -0.0659479 43.7563 0.372936 44.7044C0.81182 45.6534 1.60145 46.3943 2.57489 46.7713L9.42188 49.4599V79.3374C9.42563 80.2133 9.71448 81.0648 10.2453 81.7627C10.776 82.4604 11.5188 82.9659 12.3619 83.2031L59.4073 96.6493H59.4082C60.1219 96.85 60.8777 96.85 61.5923 96.6493L108.638 83.2031C109.481 82.9659 110.225 82.4604 110.754 81.7627C111.285 81.0649 111.574 80.2134 111.578 79.3374V49.4623L118.425 46.7737V46.7727C119.399 46.3957 120.189 45.6549 120.627 44.7058C121.066 43.7577 121.12 42.6764 120.777 41.689L111.368 14.7957C110.918 13.5249 109.862 12.5628 108.553 12.2326L61.5081 0.131301C61.1114 0.0272067 60.7006 -0.0149954 60.2899 0.00470043L60.2896 0.00417291ZM60.4997 8.19774L95.7405 17.2738L60.4997 29.3329L25.2588 17.2738L60.4997 8.19774ZM15.5549 22.442L54.9971 35.9715L46.3018 55.3005L9.12833 40.6784L15.5552 22.442H15.5549ZM105.444 22.442L111.871 40.6784L74.6978 55.3005L66.0024 35.9715L105.445 22.442H105.444ZM56.4664 52.4419V87.4427L17.4876 76.2659V52.6513L46.9329 64.2482L46.9339 64.2491C47.8998 64.6317 48.9764 64.627 49.9387 64.236C50.9008 63.844 51.6755 63.0965 52.1003 62.1475L56.4685 52.4412L56.4664 52.4419ZM64.5315 52.4419L68.8997 62.1482H68.9006C69.3254 63.0973 70.1001 63.8447 71.0623 64.2367C72.0254 64.6277 73.102 64.6324 74.0671 64.2498L103.512 52.6529V76.2676L64.5336 87.4443V52.4436L64.5315 52.4419Z" fill="#7D7D7D"/>
</svg>
