<svg width="204" height="205" viewBox="0 0 204 205" fill="none" xmlns="http://www.w3.org/2000/svg">
<rect width="204" height="205" rx="50" fill="#EBEBEB"/>
<path d="M90.1619 71.5928C91.1488 70.3817 92.2626 69.2827 93.4816 68.3126C92.9263 67.2872 92.0964 66.4769 91.143 65.9488C90.8655 65.7951 90.5783 65.6654 90.2845 65.5598C89.7264 66.1906 89.2348 66.8043 88.813 67.3674V70.5639V70.6507L89.5839 71.1891L90.1619 71.5928ZM125.478 85.8604L125.577 87.88L123.777 86.9401L125.478 85.8604ZM108.704 133.037L106.887 131.988L108.711 130.951L108.704 133.037ZM73.813 95.1096L71.9826 94.0744L73.813 92.9926V95.1096Z" fill="#242424" stroke="#242424" stroke-width="15"/>
</svg>
