<svg  width="21" height="26" viewBox="0 0 21 26" fill="#FF2D55" xmlns="http://www.w3.org/2000/svg">
<path  d="M18.7492 6.50036C17.7481 6.47858 16.9286 7.43235 16.9286 8.57137V13H16.5715V4.05185C16.5715 2.91282 15.752 1.95905 14.7509 1.98083C13.7807 2.00196 13 2.90312 13 4.01173V13H12.6429V2.07138C12.6429 0.932354 11.8234 -0.0214192 10.8223 0.00036597C9.85216 0.021491 9.07145 0.922655 9.07145 2.03126V13H8.7143V4.10263C8.7143 2.9636 7.89484 2.00983 6.89372 2.03162C5.92358 2.05274 5.14287 2.9539 5.14287 4.06251V16.0465L3.73001 13.8365C3.14996 12.9293 2.03317 12.7286 1.23549 13.3885C0.437948 14.0483 0.261608 15.3187 0.841654 16.226L6.44885 24.9962C6.64765 25.3071 6.90828 25.5601 7.20947 25.7346C7.51066 25.909 7.84386 26 8.18185 26H17.0028C17.9972 26 18.861 25.2218 19.0887 24.1208L20.2721 18.3998C20.4235 17.6679 20.5 16.9185 20.5 16.1667V8.53126C20.5 7.42265 19.7193 6.52149 18.7492 6.50036Z"
      />
</svg>
