<svg width="23" height="22" viewBox="0 0 23 22" fill="none" xmlns="http://www.w3.org/2000/svg">
<path d="M8.75 3.53571H4.625V1.17857C4.625 0.527656 5.0867 0 5.65625 0H7.71875C8.2883 0 8.75 0.527656 8.75 1.17857V3.53571ZM18.375 1.17857C18.375 0.527656 17.9133 0 17.3438 0H15.2812C14.7117 0 14.25 0.527656 14.25 1.17857V3.53571H18.375V1.17857ZM0.5 20.8214C0.5 21.4723 0.961699 22 1.53125 22H6.6875C7.25705 22 7.71875 21.4723 7.71875 20.8214V20.0357H0.5V20.8214ZM4.28125 4.71429C3.7117 4.71429 3.25 5.24194 3.25 5.89286C3.25 11 0.5 11.7857 0.5 18.8571H7.71875V13.75C7.71875 13.0991 8.18045 12.5714 8.75 12.5714V4.71429H4.28125ZM15.2812 20.8214C15.2812 21.4723 15.7429 22 16.3125 22H21.4688C22.0383 22 22.5 21.4723 22.5 20.8214V20.0357H15.2812V20.8214ZM9.78125 4.71429V12.5714H13.2188V4.71429H9.78125ZM15.2812 18.8571H22.5C22.5 11.7857 19.75 11 19.75 5.89286C19.75 5.24194 19.2883 4.71429 18.7188 4.71429H14.25V12.5714C14.8196 12.5714 15.2812 13.0991 15.2812 13.75V18.8571Z" fill="#7D7D7D"/>
</svg>
